<svg xmlns="http://www.w3.org/2000/svg" viewBox="0 0 960 430" font-family="sans-serif"><rect width="100%" height="100%" fill="#f7f6f2"/><rect x="70" y="40" width="750" height="330" fill="#ffffff" stroke="#c9c4b8"/><line x1="166.2" y1="40" x2="166.2" y2="370" stroke="#ece8de"/><text x="166.2" y="383.0" font-size="10" fill="#55524a" text-anchor="middle">150</text><line x1="358.5" y1="40" x2="358.5" y2="370" stroke="#ece8de"/><text x="358.5" y="383.0" font-size="10" fill="#55524a" text-anchor="middle">200</text><line x1="550.8" y1="40" x2="550.8" y2="370" stroke="#ece8de"/><text x="550.8" y="383.0" font-size="10" fill="#55524a" text-anchor="middle">250</text><line x1="743.1" y1="40" x2="743.1" y2="370" stroke="#ece8de"/><text x="743.1" y="383.0" font-size="10" fill="#55524a" text-anchor="middle">300</text><line x1="70" y1="370.0" x2="820" y2="370.0" stroke="#ece8de"/><text x="66.0" y="373.0" font-size="10" fill="#55524a" text-anchor="end">100</text><line x1="70" y1="318.4" x2="820" y2="318.4" stroke="#ece8de"/><text x="66.0" y="321.4" font-size="10" fill="#55524a" text-anchor="end">150</text><line x1="70" y1="266.9" x2="820" y2="266.9" stroke="#ece8de"/><text x="66.0" y="269.9" font-size="10" fill="#55524a" text-anchor="end">200</text><line x1="70" y1="215.3" x2="820" y2="215.3" stroke="#ece8de"/><text x="66.0" y="218.3" font-size="10" fill="#55524a" text-anchor="end">250</text><line x1="70" y1="163.8" x2="820" y2="163.8" stroke="#ece8de"/><text x="66.0" y="166.8" font-size="10" fill="#55524a" text-anchor="end">300</text><line x1="70" y1="112.2" x2="820" y2="112.2" stroke="#ece8de"/><text x="66.0" y="115.2" font-size="10" fill="#55524a" text-anchor="end">350</text><line x1="70" y1="60.6" x2="820" y2="60.6" stroke="#ece8de"/><text x="66.0" y="63.6" font-size="10" fill="#55524a" text-anchor="end">400</text><text x="70.0" y="32.0" font-size="13" fill="#2a2925" text-anchor="start" font-weight="bold">Lip frequency swept up, then back down, at 3 kPa: the sounding pitch</text><text x="445.0" y="398.0" font-size="11" fill="#55524a" text-anchor="middle">lip resonance, Hz</text><text transform="translate(30,205) rotate(-90)" font-size="11" fill="#55524a" text-anchor="middle">sounding pitch, Hz</text><line x1="70" y1="353.7" x2="820" y2="353.7" stroke="#d9d3c4" stroke-dasharray="3 3"/><text x="826.0" y="356.7" font-size="10" fill="#8a867a" text-anchor="start">resonance 2 (116 Hz)</text><line x1="70" y1="292.6" x2="820" y2="292.6" stroke="#d9d3c4" stroke-dasharray="3 3"/><text x="826.0" y="295.6" font-size="10" fill="#8a867a" text-anchor="start">resonance 3 (175 Hz)</text><line x1="70" y1="234.4" x2="820" y2="234.4" stroke="#d9d3c4" stroke-dasharray="3 3"/><text x="826.0" y="237.4" font-size="10" fill="#8a867a" text-anchor="start">resonance 4 (231 Hz)</text><line x1="70" y1="167.9" x2="820" y2="167.9" stroke="#d9d3c4" stroke-dasharray="3 3"/><text x="826.0" y="170.9" font-size="10" fill="#8a867a" text-anchor="start">resonance 5 (296 Hz)</text><line x1="70" y1="111.3" x2="820" y2="111.3" stroke="#d9d3c4" stroke-dasharray="3 3"/><text x="826.0" y="114.3" font-size="10" fill="#8a867a" text-anchor="start">resonance 6 (351 Hz)</text><line x1="70" y1="54.6" x2="820" y2="54.6" stroke="#d9d3c4" stroke-dasharray="3 3"/><text x="826.0" y="57.6" font-size="10" fill="#8a867a" text-anchor="start">resonance 7 (406 Hz)</text><circle cx="81.2" cy="284.5" r="3" fill="#b5462d"/><circle cx="85.0" cy="283.9" r="3" fill="#b5462d"/><circle cx="88.7" cy="283.9" r="3" fill="#b5462d"/><circle cx="92.5" cy="284.6" r="3" fill="#b5462d"/><circle cx="96.2" cy="284.0" r="3" fill="#b5462d"/><circle cx="100.0" cy="283.7" r="3" fill="#b5462d"/><circle cx="103.7" cy="283.6" r="3" fill="#b5462d"/><circle cx="107.5" cy="283.1" r="3" fill="#b5462d"/><circle cx="111.2" cy="283.0" r="3" fill="#b5462d"/><circle cx="115.0" cy="282.7" r="3" fill="#b5462d"/><circle cx="118.7" cy="282.5" r="3" fill="#b5462d"/><circle cx="122.5" cy="282.2" r="3" fill="#b5462d"/><circle cx="126.2" cy="281.9" r="3" fill="#b5462d"/><circle cx="130.0" cy="281.7" r="3" fill="#b5462d"/><circle cx="133.7" cy="281.6" r="3" fill="#b5462d"/><circle cx="137.5" cy="281.6" r="3" fill="#b5462d"/><circle cx="141.2" cy="281.3" r="3" fill="#b5462d"/><circle cx="145.0" cy="281.0" r="3" fill="#b5462d"/><circle cx="148.7" cy="280.8" r="3" fill="#b5462d"/><circle cx="152.5" cy="280.6" r="3" fill="#b5462d"/><circle cx="156.2" cy="280.6" r="3" fill="#b5462d"/><circle cx="160.0" cy="280.4" r="3" fill="#b5462d"/><circle cx="163.7" cy="280.3" r="3" fill="#b5462d"/><circle cx="167.5" cy="279.9" r="3" fill="#b5462d"/><circle cx="171.2" cy="279.7" r="3" fill="#b5462d"/><circle cx="175.0" cy="279.6" r="3" fill="#b5462d"/><circle cx="178.7" cy="279.5" r="3" fill="#b5462d"/><circle cx="182.5" cy="279.3" r="3" fill="#b5462d"/><circle cx="186.2" cy="279.2" r="3" fill="#b5462d"/><circle cx="190.0" cy="278.9" r="3" fill="#b5462d"/><circle cx="193.7" cy="278.7" r="3" fill="#b5462d"/><circle cx="197.5" cy="278.6" r="3" fill="#b5462d"/><circle cx="201.2" cy="278.5" r="3" fill="#b5462d"/><circle cx="205.0" cy="278.4" r="3" fill="#b5462d"/><circle cx="208.7" cy="278.3" r="3" fill="#b5462d"/><circle cx="212.5" cy="278.1" r="3" fill="#b5462d"/><circle cx="216.2" cy="278.1" r="3" fill="#b5462d"/><circle cx="220.0" cy="277.9" r="3" fill="#b5462d"/><circle cx="223.7" cy="277.7" r="3" fill="#b5462d"/><circle cx="227.5" cy="277.4" r="3" fill="#b5462d"/><circle cx="231.2" cy="277.1" r="3" fill="#b5462d"/><circle cx="235.0" cy="277.0" r="3" fill="#b5462d"/><circle cx="238.7" cy="276.9" r="3" fill="#b5462d"/><circle cx="242.5" cy="276.7" r="3" fill="#b5462d"/><circle cx="246.2" cy="276.4" r="3" fill="#b5462d"/><circle cx="250.0" cy="276.5" r="3" fill="#b5462d"/><circle cx="253.7" cy="276.2" r="3" fill="#b5462d"/><circle cx="257.5" cy="276.3" r="3" fill="#b5462d"/><circle cx="261.2" cy="276.2" r="3" fill="#b5462d"/><circle cx="265.0" cy="275.9" r="3" fill="#b5462d"/><circle cx="268.7" cy="275.3" r="3" fill="#b5462d"/><circle cx="276.2" cy="232.0" r="3" fill="#b5462d"/><circle cx="280.0" cy="223.8" r="3" fill="#b5462d"/><circle cx="283.7" cy="223.0" r="3" fill="#b5462d"/><circle cx="287.5" cy="223.9" r="3" fill="#b5462d"/><circle cx="291.2" cy="224.2" r="3" fill="#b5462d"/><circle cx="295.0" cy="224.1" r="3" fill="#b5462d"/><circle cx="298.7" cy="223.9" r="3" fill="#b5462d"/><circle cx="302.5" cy="223.9" r="3" fill="#b5462d"/><circle cx="306.2" cy="223.6" r="3" fill="#b5462d"/><circle cx="310.0" cy="223.4" r="3" fill="#b5462d"/><circle cx="313.7" cy="223.4" r="3" fill="#b5462d"/><circle cx="317.5" cy="223.2" r="3" fill="#b5462d"/><circle cx="321.2" cy="222.9" r="3" fill="#b5462d"/><circle cx="325.0" cy="222.7" r="3" fill="#b5462d"/><circle cx="328.7" cy="222.6" r="3" fill="#b5462d"/><circle cx="332.5" cy="222.5" r="3" fill="#b5462d"/><circle cx="336.2" cy="222.4" r="3" fill="#b5462d"/><circle cx="340.0" cy="222.0" r="3" fill="#b5462d"/><circle cx="343.7" cy="221.9" r="3" fill="#b5462d"/><circle cx="347.5" cy="221.7" r="3" fill="#b5462d"/><circle cx="351.2" cy="221.5" r="3" fill="#b5462d"/><circle cx="355.0" cy="221.3" r="3" fill="#b5462d"/><circle cx="358.7" cy="221.1" r="3" fill="#b5462d"/><circle cx="362.5" cy="221.0" r="3" fill="#b5462d"/><circle cx="366.2" cy="220.7" r="3" fill="#b5462d"/><circle cx="370.0" cy="220.6" r="3" fill="#b5462d"/><circle cx="373.7" cy="220.5" r="3" fill="#b5462d"/><circle cx="377.5" cy="220.3" r="3" fill="#b5462d"/><circle cx="381.2" cy="220.2" r="3" fill="#b5462d"/><circle cx="385.0" cy="220.0" r="3" fill="#b5462d"/><circle cx="388.7" cy="219.7" r="3" fill="#b5462d"/><circle cx="392.5" cy="219.6" r="3" fill="#b5462d"/><circle cx="396.2" cy="219.5" r="3" fill="#b5462d"/><circle cx="400.0" cy="219.1" r="3" fill="#b5462d"/><circle cx="403.7" cy="219.0" r="3" fill="#b5462d"/><circle cx="407.5" cy="219.0" r="3" fill="#b5462d"/><circle cx="411.2" cy="218.7" r="3" fill="#b5462d"/><circle cx="415.0" cy="218.6" r="3" fill="#b5462d"/><circle cx="418.7" cy="218.5" r="3" fill="#b5462d"/><circle cx="422.5" cy="218.1" r="3" fill="#b5462d"/><circle cx="426.2" cy="217.9" r="3" fill="#b5462d"/><circle cx="430.0" cy="217.8" r="3" fill="#b5462d"/><circle cx="433.7" cy="217.8" r="3" fill="#b5462d"/><circle cx="437.5" cy="217.6" r="3" fill="#b5462d"/><circle cx="441.2" cy="217.5" r="3" fill="#b5462d"/><circle cx="445.0" cy="217.2" r="3" fill="#b5462d"/><circle cx="448.7" cy="216.9" r="3" fill="#b5462d"/><circle cx="452.5" cy="216.8" r="3" fill="#b5462d"/><circle cx="456.2" cy="216.7" r="3" fill="#b5462d"/><circle cx="460.0" cy="216.5" r="3" fill="#b5462d"/><circle cx="463.7" cy="216.4" r="3" fill="#b5462d"/><circle cx="467.5" cy="216.3" r="3" fill="#b5462d"/><circle cx="471.2" cy="216.1" r="3" fill="#b5462d"/><circle cx="475.0" cy="216.1" r="3" fill="#b5462d"/><circle cx="478.7" cy="215.8" r="3" fill="#b5462d"/><circle cx="482.5" cy="215.8" r="3" fill="#b5462d"/><circle cx="486.2" cy="215.7" r="3" fill="#b5462d"/><circle cx="490.0" cy="215.6" r="3" fill="#b5462d"/><circle cx="493.7" cy="215.0" r="3" fill="#b5462d"/><circle cx="497.5" cy="211.7" r="3" fill="#b5462d"/><circle cx="505.0" cy="163.9" r="3" fill="#b5462d"/><circle cx="508.7" cy="159.8" r="3" fill="#b5462d"/><circle cx="512.5" cy="158.0" r="3" fill="#b5462d"/><circle cx="516.2" cy="157.9" r="3" fill="#b5462d"/><circle cx="520.0" cy="157.8" r="3" fill="#b5462d"/><circle cx="523.7" cy="157.5" r="3" fill="#b5462d"/><circle cx="527.5" cy="157.3" r="3" fill="#b5462d"/><circle cx="531.2" cy="157.3" r="3" fill="#b5462d"/><circle cx="535.0" cy="157.1" r="3" fill="#b5462d"/><circle cx="538.7" cy="156.9" r="3" fill="#b5462d"/><circle cx="542.5" cy="156.7" r="3" fill="#b5462d"/><circle cx="546.2" cy="156.8" r="3" fill="#b5462d"/><circle cx="550.0" cy="156.6" r="3" fill="#b5462d"/><circle cx="553.7" cy="156.4" r="3" fill="#b5462d"/><circle cx="557.5" cy="156.3" r="3" fill="#b5462d"/><circle cx="561.2" cy="155.9" r="3" fill="#b5462d"/><circle cx="565.0" cy="155.9" r="3" fill="#b5462d"/><circle cx="568.7" cy="155.7" r="3" fill="#b5462d"/><circle cx="572.5" cy="155.5" r="3" fill="#b5462d"/><circle cx="576.2" cy="155.6" r="3" fill="#b5462d"/><circle cx="580.0" cy="155.5" r="3" fill="#b5462d"/><circle cx="583.7" cy="155.3" r="3" fill="#b5462d"/><circle cx="587.5" cy="155.0" r="3" fill="#b5462d"/><circle cx="591.2" cy="155.0" r="3" fill="#b5462d"/><circle cx="595.0" cy="154.7" r="3" fill="#b5462d"/><circle cx="598.7" cy="155.0" r="3" fill="#b5462d"/><circle cx="602.5" cy="154.7" r="3" fill="#b5462d"/><circle cx="606.2" cy="154.5" r="3" fill="#b5462d"/><circle cx="610.0" cy="154.3" r="3" fill="#b5462d"/><circle cx="613.7" cy="154.2" r="3" fill="#b5462d"/><circle cx="617.5" cy="154.0" r="3" fill="#b5462d"/><circle cx="621.2" cy="154.0" r="3" fill="#b5462d"/><circle cx="625.0" cy="153.7" r="3" fill="#b5462d"/><circle cx="628.7" cy="153.6" r="3" fill="#b5462d"/><circle cx="632.5" cy="153.5" r="3" fill="#b5462d"/><circle cx="636.2" cy="153.2" r="3" fill="#b5462d"/><circle cx="640.0" cy="153.2" r="3" fill="#b5462d"/><circle cx="643.7" cy="152.8" r="3" fill="#b5462d"/><circle cx="647.5" cy="152.6" r="3" fill="#b5462d"/><circle cx="651.2" cy="152.5" r="3" fill="#b5462d"/><circle cx="655.0" cy="152.4" r="3" fill="#b5462d"/><circle cx="658.7" cy="152.3" r="3" fill="#b5462d"/><circle cx="662.5" cy="152.3" r="3" fill="#b5462d"/><circle cx="666.2" cy="152.0" r="3" fill="#b5462d"/><circle cx="670.0" cy="152.0" r="3" fill="#b5462d"/><circle cx="673.7" cy="151.8" r="3" fill="#b5462d"/><circle cx="677.5" cy="151.6" r="3" fill="#b5462d"/><circle cx="681.2" cy="151.3" r="3" fill="#b5462d"/><circle cx="685.0" cy="151.2" r="3" fill="#b5462d"/><circle cx="688.7" cy="151.0" r="3" fill="#b5462d"/><circle cx="692.5" cy="150.7" r="3" fill="#b5462d"/><circle cx="696.2" cy="150.8" r="3" fill="#b5462d"/><circle cx="700.0" cy="150.9" r="3" fill="#b5462d"/><circle cx="703.7" cy="150.8" r="3" fill="#b5462d"/><circle cx="707.5" cy="150.7" r="3" fill="#b5462d"/><circle cx="711.2" cy="150.5" r="3" fill="#b5462d"/><circle cx="715.0" cy="150.5" r="3" fill="#b5462d"/><circle cx="718.7" cy="150.4" r="3" fill="#b5462d"/><circle cx="722.5" cy="150.2" r="3" fill="#b5462d"/><circle cx="726.2" cy="149.9" r="3" fill="#b5462d"/><circle cx="730.0" cy="149.3" r="3" fill="#b5462d"/><circle cx="733.7" cy="145.7" r="3" fill="#b5462d"/><circle cx="737.5" cy="125.6" r="3" fill="#b5462d"/><circle cx="741.2" cy="104.3" r="3" fill="#b5462d"/><circle cx="745.0" cy="99.2" r="3" fill="#b5462d"/><circle cx="748.7" cy="100.3" r="3" fill="#b5462d"/><circle cx="752.5" cy="100.6" r="3" fill="#b5462d"/><circle cx="756.2" cy="101.1" r="3" fill="#b5462d"/><circle cx="760.0" cy="100.8" r="3" fill="#b5462d"/><circle cx="763.7" cy="100.7" r="3" fill="#b5462d"/><circle cx="767.5" cy="100.7" r="3" fill="#b5462d"/><circle cx="771.2" cy="100.3" r="3" fill="#b5462d"/><circle cx="775.0" cy="100.2" r="3" fill="#b5462d"/><circle cx="778.7" cy="100.1" r="3" fill="#b5462d"/><circle cx="782.5" cy="99.9" r="3" fill="#b5462d"/><circle cx="786.2" cy="99.9" r="3" fill="#b5462d"/><circle cx="790.0" cy="99.9" r="3" fill="#b5462d"/><circle cx="793.7" cy="99.4" r="3" fill="#b5462d"/><circle cx="797.5" cy="99.4" r="3" fill="#b5462d"/><circle cx="801.2" cy="99.2" r="3" fill="#b5462d"/><circle cx="805.0" cy="99.4" r="3" fill="#b5462d"/><circle cx="808.7" cy="99.3" r="3" fill="#b5462d"/><circle cx="812.5" cy="98.9" r="3" fill="#b5462d"/><circle cx="816.2" cy="98.7" r="3" fill="#b5462d"/><circle cx="820.0" cy="98.3" r="3" fill="#b5462d"/><circle cx="816.3" cy="98.7" r="3" fill="#1f5f8b"/><circle cx="812.5" cy="98.6" r="3" fill="#1f5f8b"/><circle cx="808.8" cy="99.2" r="3" fill="#1f5f8b"/><circle cx="805.0" cy="98.9" r="3" fill="#1f5f8b"/><circle cx="801.3" cy="99.3" r="3" fill="#1f5f8b"/><circle cx="797.5" cy="99.7" r="3" fill="#1f5f8b"/><circle cx="793.8" cy="99.6" r="3" fill="#1f5f8b"/><circle cx="790.0" cy="99.7" r="3" fill="#1f5f8b"/><circle cx="786.3" cy="99.7" r="3" fill="#1f5f8b"/><circle cx="782.5" cy="100.1" r="3" fill="#1f5f8b"/><circle cx="778.8" cy="100.0" r="3" fill="#1f5f8b"/><circle cx="775.0" cy="100.3" r="3" fill="#1f5f8b"/><circle cx="771.3" cy="100.3" r="3" fill="#1f5f8b"/><circle cx="767.5" cy="100.3" r="3" fill="#1f5f8b"/><circle cx="763.8" cy="100.6" r="3" fill="#1f5f8b"/><circle cx="760.0" cy="100.8" r="3" fill="#1f5f8b"/><circle cx="756.3" cy="101.0" r="3" fill="#1f5f8b"/><circle cx="752.5" cy="101.1" r="3" fill="#1f5f8b"/><circle cx="748.8" cy="101.1" r="3" fill="#1f5f8b"/><circle cx="745.0" cy="101.1" r="3" fill="#1f5f8b"/><circle cx="741.3" cy="101.3" r="3" fill="#1f5f8b"/><circle cx="737.5" cy="101.5" r="3" fill="#1f5f8b"/><circle cx="733.8" cy="101.5" r="3" fill="#1f5f8b"/><circle cx="730.0" cy="101.5" r="3" fill="#1f5f8b"/><circle cx="726.3" cy="101.7" r="3" fill="#1f5f8b"/><circle cx="722.5" cy="101.8" r="3" fill="#1f5f8b"/><circle cx="718.8" cy="101.8" r="3" fill="#1f5f8b"/><circle cx="715.0" cy="101.9" r="3" fill="#1f5f8b"/><circle cx="711.3" cy="102.2" r="3" fill="#1f5f8b"/><circle cx="707.5" cy="102.5" r="3" fill="#1f5f8b"/><circle cx="703.8" cy="102.7" r="3" fill="#1f5f8b"/><circle cx="700.0" cy="102.8" r="3" fill="#1f5f8b"/><circle cx="696.3" cy="102.9" r="3" fill="#1f5f8b"/><circle cx="692.5" cy="103.0" r="3" fill="#1f5f8b"/><circle cx="688.8" cy="103.3" r="3" fill="#1f5f8b"/><circle cx="685.0" cy="103.1" r="3" fill="#1f5f8b"/><circle cx="681.3" cy="103.3" r="3" fill="#1f5f8b"/><circle cx="677.5" cy="103.5" r="3" fill="#1f5f8b"/><circle cx="673.8" cy="103.6" r="3" fill="#1f5f8b"/><circle cx="670.0" cy="103.8" r="3" fill="#1f5f8b"/><circle cx="666.3" cy="104.1" r="3" fill="#1f5f8b"/><circle cx="662.5" cy="104.1" r="3" fill="#1f5f8b"/><circle cx="658.8" cy="104.2" r="3" fill="#1f5f8b"/><circle cx="655.0" cy="104.5" r="3" fill="#1f5f8b"/><circle cx="651.3" cy="104.7" r="3" fill="#1f5f8b"/><circle cx="647.5" cy="104.8" r="3" fill="#1f5f8b"/><circle cx="643.8" cy="104.7" r="3" fill="#1f5f8b"/><circle cx="640.0" cy="104.8" r="3" fill="#1f5f8b"/><circle cx="636.3" cy="105.2" r="3" fill="#1f5f8b"/><circle cx="632.5" cy="105.4" r="3" fill="#1f5f8b"/><circle cx="628.8" cy="105.5" r="3" fill="#1f5f8b"/><circle cx="625.0" cy="105.8" r="3" fill="#1f5f8b"/><circle cx="621.3" cy="105.8" r="3" fill="#1f5f8b"/><circle cx="617.5" cy="106.0" r="3" fill="#1f5f8b"/><circle cx="613.8" cy="105.9" r="3" fill="#1f5f8b"/><circle cx="610.0" cy="106.1" r="3" fill="#1f5f8b"/><circle cx="606.3" cy="106.6" r="3" fill="#1f5f8b"/><circle cx="602.5" cy="106.7" r="3" fill="#1f5f8b"/><circle cx="598.8" cy="106.7" r="3" fill="#1f5f8b"/><circle cx="595.0" cy="107.0" r="3" fill="#1f5f8b"/><circle cx="591.3" cy="107.5" r="3" fill="#1f5f8b"/><circle cx="587.5" cy="107.4" r="3" fill="#1f5f8b"/><circle cx="583.8" cy="107.4" r="3" fill="#1f5f8b"/><circle cx="580.0" cy="107.6" r="3" fill="#1f5f8b"/><circle cx="576.3" cy="107.8" r="3" fill="#1f5f8b"/><circle cx="572.5" cy="108.0" r="3" fill="#1f5f8b"/><circle cx="568.8" cy="108.4" r="3" fill="#1f5f8b"/><circle cx="565.0" cy="108.5" r="3" fill="#1f5f8b"/><circle cx="561.3" cy="108.7" r="3" fill="#1f5f8b"/><circle cx="557.5" cy="108.9" r="3" fill="#1f5f8b"/><circle cx="553.8" cy="109.2" r="3" fill="#1f5f8b"/><circle cx="550.0" cy="109.6" r="3" fill="#1f5f8b"/><circle cx="546.3" cy="110.0" r="3" fill="#1f5f8b"/><circle cx="542.5" cy="110.1" r="3" fill="#1f5f8b"/><circle cx="538.8" cy="110.0" r="3" fill="#1f5f8b"/><circle cx="535.0" cy="110.0" r="3" fill="#1f5f8b"/><circle cx="531.3" cy="110.8" r="3" fill="#1f5f8b"/><circle cx="527.5" cy="114.6" r="3" fill="#1f5f8b"/><circle cx="523.8" cy="123.9" r="3" fill="#1f5f8b"/><circle cx="520.0" cy="140.9" r="3" fill="#1f5f8b"/><circle cx="516.3" cy="154.6" r="3" fill="#1f5f8b"/><circle cx="512.5" cy="157.8" r="3" fill="#1f5f8b"/><circle cx="508.8" cy="158.3" r="3" fill="#1f5f8b"/><circle cx="505.0" cy="158.4" r="3" fill="#1f5f8b"/><circle cx="501.3" cy="158.3" r="3" fill="#1f5f8b"/><circle cx="497.5" cy="158.7" r="3" fill="#1f5f8b"/><circle cx="493.8" cy="158.8" r="3" fill="#1f5f8b"/><circle cx="490.0" cy="159.0" r="3" fill="#1f5f8b"/><circle cx="486.3" cy="159.2" r="3" fill="#1f5f8b"/><circle cx="482.5" cy="159.3" r="3" fill="#1f5f8b"/><circle cx="478.8" cy="159.4" r="3" fill="#1f5f8b"/><circle cx="475.0" cy="159.6" r="3" fill="#1f5f8b"/><circle cx="471.3" cy="159.9" r="3" fill="#1f5f8b"/><circle cx="467.5" cy="160.2" r="3" fill="#1f5f8b"/><circle cx="463.8" cy="160.4" r="3" fill="#1f5f8b"/><circle cx="460.0" cy="160.7" r="3" fill="#1f5f8b"/><circle cx="456.3" cy="160.7" r="3" fill="#1f5f8b"/><circle cx="452.5" cy="160.9" r="3" fill="#1f5f8b"/><circle cx="448.8" cy="161.2" r="3" fill="#1f5f8b"/><circle cx="445.0" cy="161.4" r="3" fill="#1f5f8b"/><circle cx="441.3" cy="161.8" r="3" fill="#1f5f8b"/><circle cx="437.5" cy="162.0" r="3" fill="#1f5f8b"/><circle cx="433.8" cy="162.2" r="3" fill="#1f5f8b"/><circle cx="430.0" cy="162.4" r="3" fill="#1f5f8b"/><circle cx="426.3" cy="162.6" r="3" fill="#1f5f8b"/><circle cx="422.5" cy="163.0" r="3" fill="#1f5f8b"/><circle cx="418.8" cy="163.2" r="3" fill="#1f5f8b"/><circle cx="415.0" cy="163.6" r="3" fill="#1f5f8b"/><circle cx="411.3" cy="163.9" r="3" fill="#1f5f8b"/><circle cx="407.5" cy="164.2" r="3" fill="#1f5f8b"/><circle cx="403.8" cy="164.4" r="3" fill="#1f5f8b"/><circle cx="400.0" cy="164.5" r="3" fill="#1f5f8b"/><circle cx="396.3" cy="164.9" r="3" fill="#1f5f8b"/><circle cx="392.5" cy="165.1" r="3" fill="#1f5f8b"/><circle cx="388.8" cy="165.4" r="3" fill="#1f5f8b"/><circle cx="385.0" cy="165.6" r="3" fill="#1f5f8b"/><circle cx="381.3" cy="166.1" r="3" fill="#1f5f8b"/><circle cx="377.5" cy="166.4" r="3" fill="#1f5f8b"/><circle cx="373.8" cy="166.8" r="3" fill="#1f5f8b"/><circle cx="370.0" cy="167.2" r="3" fill="#1f5f8b"/><circle cx="366.3" cy="167.7" r="3" fill="#1f5f8b"/><circle cx="362.5" cy="167.5" r="3" fill="#1f5f8b"/><circle cx="358.8" cy="167.1" r="3" fill="#1f5f8b"/><circle cx="355.0" cy="167.0" r="3" fill="#1f5f8b"/><circle cx="351.3" cy="170.4" r="3" fill="#1f5f8b"/><circle cx="347.5" cy="181.0" r="3" fill="#1f5f8b"/><circle cx="343.8" cy="212.4" r="3" fill="#1f5f8b"/><circle cx="340.0" cy="220.3" r="3" fill="#1f5f8b"/><circle cx="336.3" cy="221.7" r="3" fill="#1f5f8b"/><circle cx="332.5" cy="222.1" r="3" fill="#1f5f8b"/><circle cx="328.8" cy="222.5" r="3" fill="#1f5f8b"/><circle cx="325.0" cy="222.5" r="3" fill="#1f5f8b"/><circle cx="321.3" cy="222.6" r="3" fill="#1f5f8b"/><circle cx="317.5" cy="222.8" r="3" fill="#1f5f8b"/><circle cx="313.8" cy="223.1" r="3" fill="#1f5f8b"/><circle cx="310.0" cy="223.5" r="3" fill="#1f5f8b"/><circle cx="306.3" cy="223.6" r="3" fill="#1f5f8b"/><circle cx="302.5" cy="223.6" r="3" fill="#1f5f8b"/><circle cx="298.8" cy="223.8" r="3" fill="#1f5f8b"/><circle cx="295.0" cy="224.2" r="3" fill="#1f5f8b"/><circle cx="291.3" cy="224.2" r="3" fill="#1f5f8b"/><circle cx="287.5" cy="224.3" r="3" fill="#1f5f8b"/><circle cx="283.8" cy="224.6" r="3" fill="#1f5f8b"/><circle cx="280.0" cy="224.8" r="3" fill="#1f5f8b"/><circle cx="276.3" cy="224.8" r="3" fill="#1f5f8b"/><circle cx="272.5" cy="225.0" r="3" fill="#1f5f8b"/><circle cx="268.8" cy="225.2" r="3" fill="#1f5f8b"/><circle cx="265.0" cy="225.4" r="3" fill="#1f5f8b"/><circle cx="261.3" cy="225.6" r="3" fill="#1f5f8b"/><circle cx="257.5" cy="225.8" r="3" fill="#1f5f8b"/><circle cx="253.8" cy="226.1" r="3" fill="#1f5f8b"/><circle cx="250.0" cy="226.2" r="3" fill="#1f5f8b"/><circle cx="246.3" cy="226.3" r="3" fill="#1f5f8b"/><circle cx="242.5" cy="226.5" r="3" fill="#1f5f8b"/><circle cx="238.8" cy="226.8" r="3" fill="#1f5f8b"/><circle cx="235.0" cy="226.9" r="3" fill="#1f5f8b"/><circle cx="231.3" cy="227.1" r="3" fill="#1f5f8b"/><circle cx="227.5" cy="227.2" r="3" fill="#1f5f8b"/><circle cx="223.8" cy="227.6" r="3" fill="#1f5f8b"/><circle cx="220.0" cy="227.9" r="3" fill="#1f5f8b"/><circle cx="216.3" cy="228.0" r="3" fill="#1f5f8b"/><circle cx="212.5" cy="228.2" r="3" fill="#1f5f8b"/><circle cx="208.8" cy="228.4" r="3" fill="#1f5f8b"/><circle cx="205.0" cy="228.6" r="3" fill="#1f5f8b"/><circle cx="201.3" cy="228.6" r="3" fill="#1f5f8b"/><circle cx="197.5" cy="229.0" r="3" fill="#1f5f8b"/><circle cx="193.8" cy="229.2" r="3" fill="#1f5f8b"/><circle cx="190.0" cy="229.5" r="3" fill="#1f5f8b"/><circle cx="186.3" cy="229.6" r="3" fill="#1f5f8b"/><circle cx="182.5" cy="229.8" r="3" fill="#1f5f8b"/><circle cx="178.8" cy="230.1" r="3" fill="#1f5f8b"/><circle cx="175.0" cy="230.3" r="3" fill="#1f5f8b"/><circle cx="171.3" cy="230.6" r="3" fill="#1f5f8b"/><circle cx="167.5" cy="230.8" r="3" fill="#1f5f8b"/><circle cx="163.8" cy="231.0" r="3" fill="#1f5f8b"/><circle cx="160.0" cy="231.2" r="3" fill="#1f5f8b"/><circle cx="156.3" cy="231.4" r="3" fill="#1f5f8b"/><circle cx="152.5" cy="231.8" r="3" fill="#1f5f8b"/><circle cx="148.8" cy="232.1" r="3" fill="#1f5f8b"/><circle cx="145.0" cy="232.3" r="3" fill="#1f5f8b"/><circle cx="141.3" cy="232.7" r="3" fill="#1f5f8b"/><circle cx="137.5" cy="233.0" r="3" fill="#1f5f8b"/><circle cx="133.8" cy="233.0" r="3" fill="#1f5f8b"/><circle cx="130.0" cy="232.7" r="3" fill="#1f5f8b"/><circle cx="126.3" cy="233.1" r="3" fill="#1f5f8b"/><circle cx="122.5" cy="243.6" r="3" fill="#1f5f8b"/><circle cx="115.0" cy="278.3" r="3" fill="#1f5f8b"/><circle cx="111.3" cy="281.5" r="3" fill="#1f5f8b"/><circle cx="107.5" cy="283.0" r="3" fill="#1f5f8b"/><circle cx="103.8" cy="283.6" r="3" fill="#1f5f8b"/><circle cx="100.0" cy="283.5" r="3" fill="#1f5f8b"/><circle cx="96.3" cy="283.7" r="3" fill="#1f5f8b"/><circle cx="92.5" cy="283.9" r="3" fill="#1f5f8b"/><circle cx="88.8" cy="284.0" r="3" fill="#1f5f8b"/><circle cx="85.0" cy="284.4" r="3" fill="#1f5f8b"/><circle cx="81.3" cy="284.7" r="3" fill="#1f5f8b"/><circle cx="77.5" cy="285.0" r="3" fill="#1f5f8b"/><circle cx="73.8" cy="285.1" r="3" fill="#1f5f8b"/><circle cx="70.0" cy="285.3" r="3" fill="#1f5f8b"/><text x="70.0" y="396.0" font-size="11" fill="#b5462d" text-anchor="start">red: lips swept up</text><text x="70.0" y="412.0" font-size="11" fill="#1f5f8b" text-anchor="start">blue: swept back down (state carried over, 40 ms windows)</text></svg>