<svg xmlns="http://www.w3.org/2000/svg" viewBox="0 0 960 360" font-family="sans-serif"><rect width="100%" height="100%" fill="#f7f6f2"/><rect x="60" y="40" width="880" height="250" fill="#ffffff" stroke="#c9c4b8"/><line x1="163.5" y1="40" x2="163.5" y2="290" stroke="#ece8de"/><text x="163.5" y="303.0" font-size="10" fill="#55524a" text-anchor="middle">100</text><line x1="292.9" y1="40" x2="292.9" y2="290" stroke="#ece8de"/><text x="292.9" y="303.0" font-size="10" fill="#55524a" text-anchor="middle">200</text><line x1="422.4" y1="40" x2="422.4" y2="290" stroke="#ece8de"/><text x="422.4" y="303.0" font-size="10" fill="#55524a" text-anchor="middle">300</text><line x1="551.8" y1="40" x2="551.8" y2="290" stroke="#ece8de"/><text x="551.8" y="303.0" font-size="10" fill="#55524a" text-anchor="middle">400</text><line x1="681.2" y1="40" x2="681.2" y2="290" stroke="#ece8de"/><text x="681.2" y="303.0" font-size="10" fill="#55524a" text-anchor="middle">500</text><line x1="810.6" y1="40" x2="810.6" y2="290" stroke="#ece8de"/><text x="810.6" y="303.0" font-size="10" fill="#55524a" text-anchor="middle">600</text><line x1="940.0" y1="40" x2="940.0" y2="290" stroke="#ece8de"/><text x="940.0" y="303.0" font-size="10" fill="#55524a" text-anchor="middle">700</text><line x1="60" y1="282.6" x2="940" y2="282.6" stroke="#ece8de"/><text x="56.0" y="285.6" font-size="10" fill="#55524a" text-anchor="end">-20</text><line x1="60" y1="245.9" x2="940" y2="245.9" stroke="#ece8de"/><text x="56.0" y="248.9" font-size="10" fill="#55524a" text-anchor="end">-10</text><line x1="60" y1="209.1" x2="940" y2="209.1" stroke="#ece8de"/><text x="56.0" y="212.1" font-size="10" fill="#55524a" text-anchor="end">0</text><line x1="60" y1="172.4" x2="940" y2="172.4" stroke="#ece8de"/><text x="56.0" y="175.4" font-size="10" fill="#55524a" text-anchor="end">10</text><line x1="60" y1="135.6" x2="940" y2="135.6" stroke="#ece8de"/><text x="56.0" y="138.6" font-size="10" fill="#55524a" text-anchor="end">20</text><line x1="60" y1="98.8" x2="940" y2="98.8" stroke="#ece8de"/><text x="56.0" y="101.8" font-size="10" fill="#55524a" text-anchor="end">30</text><line x1="60" y1="62.1" x2="940" y2="62.1" stroke="#ece8de"/><text x="56.0" y="65.1" font-size="10" fill="#55524a" text-anchor="end">40</text><text x="60.0" y="32.0" font-size="13" fill="#2a2925" text-anchor="start" font-weight="bold">Tenor trombone, first position: input impedance at the lips</text><text x="500.0" y="318.0" font-size="11" fill="#55524a" text-anchor="middle">frequency, Hz</text><text transform="translate(20,165) rotate(-90)" font-size="11" fill="#55524a" text-anchor="middle">|Z| in dB re 1e6 Pa s/m^3</text><line x1="109.5" y1="40" x2="109.5" y2="290" stroke="#d9d3c4" stroke-dasharray="3 3"/><line x1="184.9" y1="40" x2="184.9" y2="290" stroke="#d9d3c4" stroke-dasharray="3 3"/><line x1="260.3" y1="40" x2="260.3" y2="290" stroke="#d9d3c4" stroke-dasharray="3 3"/><line x1="335.8" y1="40" x2="335.8" y2="290" stroke="#d9d3c4" stroke-dasharray="3 3"/><line x1="411.2" y1="40" x2="411.2" y2="290" stroke="#d9d3c4" stroke-dasharray="3 3"/><line x1="486.6" y1="40" x2="486.6" y2="290" stroke="#d9d3c4" stroke-dasharray="3 3"/><line x1="562.0" y1="40" x2="562.0" y2="290" stroke="#d9d3c4" stroke-dasharray="3 3"/><line x1="637.4" y1="40" x2="637.4" y2="290" stroke="#d9d3c4" stroke-dasharray="3 3"/><line x1="712.8" y1="40" x2="712.8" y2="290" stroke="#d9d3c4" stroke-dasharray="3 3"/><line x1="788.2" y1="40" x2="788.2" y2="290" stroke="#d9d3c4" stroke-dasharray="3 3"/><line x1="863.6" y1="40" x2="863.6" y2="290" stroke="#d9d3c4" stroke-dasharray="3 3"/><line x1="939.0" y1="40" x2="939.0" y2="290" stroke="#d9d3c4" stroke-dasharray="3 3"/><polyline points="60.2,174.7 61.1,173.1 62.0,171.5 62.9,170.0 63.7,168.4 64.6,166.7 65.5,165.1 66.3,163.4 67.2,161.8 68.1,160.0 69.0,158.3 69.8,156.5 70.7,154.6 71.6,152.7 72.4,150.7 73.3,148.7 74.2,146.6 75.0,144.3 75.9,142.0 76.8,139.5 77.7,136.9 78.5,134.2 79.4,131.3 80.3,128.2 81.1,125.0 82.0,121.7 82.9,118.4 83.8,115.3 84.6,112.6 85.5,110.8 86.4,110.2 87.2,111.0 88.1,113.1 89.0,116.1 89.9,119.5 90.7,123.0 91.6,126.6 92.5,130.1 93.3,133.4 94.2,136.6 95.1,139.6 95.9,142.5 96.8,145.2 97.7,147.9 98.6,150.4 99.4,152.9 100.3,155.3 101.2,157.6 102.0,159.8 102.9,162.0 103.8,164.2 104.7,166.4 105.5,168.5 106.4,170.6 107.3,172.7 108.1,174.9 109.0,177.0 109.9,179.1 110.8,181.3 111.6,183.5 112.5,185.7 113.4,188.0 114.2,190.4 115.1,192.8 116.0,195.3 116.8,197.9 117.7,200.6 118.6,203.4 119.5,206.4 120.3,209.5 121.2,212.9 122.1,216.4 122.9,220.1 123.8,224.0 124.7,228.0 125.6,231.9 126.4,235.5 127.3,238.2 128.2,239.5 129.0,239.1 129.9,237.1 130.8,234.1 131.7,230.6 132.5,226.9 133.4,223.4 134.3,220.0 135.1,216.8 136.0,213.9 136.9,211.1 137.7,208.5 138.6,206.0 139.5,203.7 140.4,201.5 141.2,199.5 142.1,197.5 143.0,195.6 143.8,193.8 144.7,192.0 145.6,190.4 146.5,188.7 147.3,187.2 148.2,185.6 149.1,184.1 149.9,182.7 150.8,181.2 151.7,179.8 152.6,178.4 153.4,177.0 154.3,175.7 155.2,174.3 156.0,173.0 156.9,171.6 157.8,170.3 158.6,168.9 159.5,167.6 160.4,166.2 161.3,164.9 162.1,163.5 163.0,162.1 163.9,160.7 164.7,159.2 165.6,157.7 166.5,156.2 167.4,154.6 168.2,153.0 169.1,151.4 170.0,149.6 170.8,147.8 171.7,146.0 172.6,144.0 173.5,141.9 174.3,139.8 175.2,137.4 176.1,135.0 176.9,132.3 177.8,129.5 178.7,126.5 179.5,123.3 180.4,119.8 181.3,116.3 182.2,112.8 183.0,109.6 183.9,107.3 184.8,106.5 185.6,107.6 186.5,110.2 187.4,114.0 188.3,118.3 189.1,122.6 190.0,126.9 190.9,131.1 191.7,135.0 192.6,138.8 193.5,142.4 194.4,145.8 195.2,149.2 196.1,152.4 197.0,155.5 197.8,158.6 198.7,161.6 199.6,164.6 200.4,167.6 201.3,170.6 202.2,173.7 203.1,176.7 203.9,179.9 204.8,183.1 205.7,186.5 206.5,189.9 207.4,193.6 208.3,197.4 209.2,201.4 210.0,205.7 210.9,210.3 211.8,215.1 212.6,220.1 213.5,224.8 214.4,228.7 215.2,230.8 216.1,230.6 217.0,228.2 217.9,224.5 218.7,220.4 219.6,216.3 220.5,212.3 221.3,208.7 222.2,205.3 223.1,202.3 224.0,199.4 224.8,196.7 225.7,194.2 226.6,191.9 227.4,189.7 228.3,187.6 229.2,185.6 230.1,183.6 230.9,181.8 231.8,180.0 232.7,178.3 233.5,176.6 234.4,174.9 235.3,173.3 236.1,171.7 237.0,170.1 237.9,168.6 238.8,167.0 239.6,165.4 240.5,163.9 241.4,162.3 242.2,160.7 243.1,159.1 244.0,157.5 244.9,155.8 245.7,154.0 246.6,152.3 247.5,150.4 248.3,148.5 249.2,146.5 250.1,144.4 251.0,142.1 251.8,139.7 252.7,137.2 253.6,134.4 254.4,131.5 255.3,128.2 256.2,124.6 257.0,120.7 257.9,116.4 258.8,111.8 259.7,107.3 260.5,103.7 261.4,102.2 262.3,103.8 263.1,108.1 264.0,113.7 264.9,119.5 265.8,125.3 266.6,130.7 267.5,135.7 268.4,140.5 269.2,145.1 270.1,149.4 271.0,153.6 271.9,157.8 272.7,161.8 273.6,165.9 274.5,170.0 275.3,174.1 276.2,178.4 277.1,182.8 277.9,187.4 278.8,192.2 279.7,197.3 280.6,202.7 281.4,208.4 282.3,214.1 283.2,219.2 284.0,222.7 284.9,223.3 285.8,221.2 286.7,217.4 287.5,213.0 288.4,208.7 289.3,204.7 290.1,200.9 291.0,197.5 291.9,194.4 292.8,191.6 293.6,189.0 294.5,186.5 295.4,184.3 296.2,182.1 297.1,180.1 298.0,178.2 298.8,176.4 299.7,174.6 300.6,172.9 301.5,171.3 302.3,169.7 303.2,168.1 304.1,166.6 304.9,165.1 305.8,163.7 306.7,162.2 307.6,160.8 308.4,159.4 309.3,157.9 310.2,156.5 311.0,155.1 311.9,153.6 312.8,152.2 313.7,150.7 314.5,149.2 315.4,147.6 316.3,146.0 317.1,144.4 318.0,142.8 318.9,141.0 319.7,139.2 320.6,137.3 321.5,135.4 322.4,133.3 323.2,131.1 324.1,128.7 325.0,126.3 325.8,123.6 326.7,120.7 327.6,117.6 328.5,114.3 329.3,110.8 330.2,107.0 331.1,103.3 331.9,99.9 332.8,97.5 333.7,96.6 334.6,97.9 335.4,101.0 336.3,105.1 337.2,109.7 338.0,114.4 338.9,118.9 339.8,123.3 340.6,127.4 341.5,131.3 342.4,135.0 343.3,138.6 344.1,142.0 345.0,145.4 345.9,148.7 346.7,151.9 347.6,155.0 348.5,158.2 349.4,161.4 350.2,164.5 351.1,167.8 352.0,171.0 352.8,174.4 353.7,177.9 354.6,181.4 355.5,185.2 356.3,189.1 357.2,193.2 358.1,197.4 358.9,201.8 359.8,206.2 360.7,210.4 361.5,213.9 362.4,216.2 363.3,216.7 364.2,215.5 365.0,212.9 365.9,209.7 366.8,206.2 367.6,202.8 368.5,199.5 369.4,196.3 370.3,193.4 371.1,190.7 372.0,188.2 372.9,185.8 373.7,183.6 374.6,181.5 375.5,179.5 376.4,177.6 377.2,175.8 378.1,174.1 379.0,172.4 379.8,170.8 380.7,169.2 381.6,167.7 382.4,166.2 383.3,164.8 384.2,163.4 385.1,162.0 385.9,160.6 386.8,159.3 387.7,157.9 388.5,156.6 389.4,155.3 390.3,153.9 391.2,152.6 392.0,151.3 392.9,149.9 393.8,148.6 394.6,147.2 395.5,145.8 396.4,144.4 397.3,142.9 398.1,141.4 399.0,139.9 399.9,138.4 400.7,136.7 401.6,135.1 402.5,133.3 403.3,131.5 404.2,129.6 405.1,127.6 406.0,125.4 406.8,123.2 407.7,120.8 408.6,118.3 409.4,115.5 410.3,112.6 411.2,109.4 412.1,106.0 412.9,102.5 413.8,98.9 414.7,95.5 415.5,92.8 416.4,91.4 417.3,91.8 418.2,94.0 419.0,97.6 419.9,101.8 420.8,106.3 421.6,110.8 422.5,115.0 423.4,119.1 424.2,123.0 425.1,126.8 426.0,130.3 426.9,133.8 427.7,137.1 428.6,140.3 429.5,143.5 430.3,146.7 431.2,149.8 432.1,152.9 433.0,156.0 433.8,159.2 434.7,162.4 435.6,165.6 436.4,169.0 437.3,172.5 438.2,176.1 439.1,179.9 439.9,183.8 440.8,188.0 441.7,192.3 442.5,196.6 443.4,200.9 444.3,204.6 445.1,207.3 446.0,208.4 446.9,207.6 447.8,205.3 448.6,202.1 449.5,198.5 450.4,194.9 451.2,191.4 452.1,188.1 453.0,184.9 453.9,182.0 454.7,179.3 455.6,176.7 456.5,174.2 457.3,171.9 458.2,169.7 459.1,167.6 460.0,165.5 460.8,163.5 461.7,161.6 462.6,159.7 463.4,157.9 464.3,156.1 465.2,154.3 466.0,152.5 466.9,150.7 467.8,148.9 468.7,147.2 469.5,145.4 470.4,143.6 471.3,141.7 472.1,139.8 473.0,137.9 473.9,135.9 474.8,133.9 475.6,131.7 476.5,129.5 477.4,127.2 478.2,124.8 479.1,122.2 480.0,119.4 480.9,116.5 481.7,113.4 482.6,110.1 483.5,106.6 484.3,102.9 485.2,99.3 486.1,96.1 486.9,93.7 487.8,92.7 488.7,93.6 489.6,96.2 490.4,99.9 491.3,104.1 492.2,108.5 493.0,112.8 493.9,116.9 494.8,120.9 495.7,124.7 496.5,128.3 497.4,131.8 498.3,135.2 499.1,138.5 500.0,141.7 500.9,144.9 501.8,148.0 502.6,151.2 503.5,154.3 504.4,157.5 505.2,160.7 506.1,164.0 507.0,167.4 507.8,170.8 508.7,174.4 509.6,178.2 510.5,182.0 511.3,185.9 512.2,189.9 513.1,193.7 513.9,197.1 514.8,199.6 515.7,200.9 516.6,200.6 517.4,199.1 518.3,196.5 519.2,193.5 520.0,190.3 520.9,187.0 521.8,183.8 522.7,180.8 523.5,178.0 524.4,175.2 525.3,172.7 526.1,170.2 527.0,167.8 527.9,165.6 528.7,163.4 529.6,161.4 530.5,159.3 531.4,157.4 532.2,155.4 533.1,153.5 534.0,151.7 534.8,149.8 535.7,148.0 536.6,146.2 537.5,144.3 538.3,142.5 539.2,140.7 540.1,138.8 540.9,136.9 541.8,135.0 542.7,133.0 543.6,131.0 544.4,128.9 545.3,126.8 546.2,124.5 547.0,122.2 547.9,119.8 548.8,117.3 549.6,114.6 550.5,111.8 551.4,108.9 552.3,105.8 553.1,102.6 554.0,99.4 554.9,96.3 555.7,93.5 556.6,91.3 557.5,90.2 558.4,90.3 559.2,91.7 560.1,94.2 561.0,97.2 561.8,100.6 562.7,104.1 563.6,107.6 564.5,111.0 565.3,114.2 566.2,117.3 567.1,120.3 567.9,123.1 568.8,125.9 569.7,128.5 570.5,131.1 571.4,133.6 572.3,136.1 573.2,138.5 574.0,140.8 574.9,143.2 575.8,145.5 576.6,147.8 577.5,150.1 578.4,152.5 579.3,154.8 580.1,157.2 581.0,159.6 581.9,162.0 582.7,164.6 583.6,167.2 584.5,169.8 585.4,172.6 586.2,175.4 587.1,178.4 588.0,181.4 588.8,184.6 589.7,187.7 590.6,190.9 591.4,193.8 592.3,196.4 593.2,198.4 594.1,199.6 594.9,199.6 595.8,198.7 596.7,196.9 597.5,194.5 598.4,191.7 599.3,188.8 600.2,185.9 601.0,183.0 601.9,180.2 602.8,177.5 603.6,174.9 604.5,172.4 605.4,170.0 606.3,167.7 607.1,165.5 608.0,163.3 608.9,161.2 609.7,159.2 610.6,157.1 611.5,155.2 612.3,153.2 613.2,151.3 614.1,149.4 615.0,147.5 615.8,145.7 616.7,143.8 617.6,141.9 618.4,140.0 619.3,138.0 620.2,136.1 621.1,134.1 621.9,132.1 622.8,130.0 623.7,127.8 624.5,125.6 625.4,123.4 626.3,121.0 627.2,118.6 628.0,116.0 628.9,113.4 629.8,110.7 630.6,107.9 631.5,105.0 632.4,102.1 633.2,99.4 634.1,96.9 635.0,95.0 635.9,93.7 636.7,93.4 637.6,94.0 638.5,95.5 639.3,97.7 640.2,100.4 641.1,103.3 642.0,106.2 642.8,109.2 643.7,112.1 644.6,115.0 645.4,117.7 646.3,120.4 647.2,123.0 648.1,125.5 648.9,127.9 649.8,130.2 650.7,132.5 651.5,134.8 652.4,137.0 653.3,139.1 654.1,141.3 655.0,143.4 655.9,145.5 656.8,147.7 657.6,149.8 658.5,151.9 659.4,154.1 660.2,156.3 661.1,158.5 662.0,160.8 662.9,163.1 663.7,165.4 664.6,167.9 665.5,170.3 666.3,172.9 667.2,175.5 668.1,178.1 669.0,180.7 669.8,183.2 670.7,185.6 671.6,187.7 672.4,189.3 673.3,190.4 674.2,190.8 675.0,190.4 675.9,189.3 676.8,187.6 677.7,185.5 678.5,183.1 679.4,180.5 680.3,177.9 681.1,175.2 682.0,172.6 682.9,170.0 683.8,167.4 684.6,165.0 685.5,162.5 686.4,160.2 687.2,157.8 688.1,155.5 689.0,153.3 689.9,151.1 690.7,148.8 691.6,146.6 692.5,144.4 693.3,142.2 694.2,140.0 695.1,137.8 695.9,135.5 696.8,133.2 697.7,130.9 698.6,128.6 699.4,126.2 700.3,123.7 701.2,121.3 702.0,118.8 702.9,116.3 703.8,113.8 704.7,111.4 705.5,109.2 706.4,107.2 707.3,105.5 708.1,104.4 709.0,103.9 709.9,103.9 710.8,104.7 711.6,105.9 712.5,107.6 713.4,109.6 714.2,111.8 715.1,114.2 716.0,116.5 716.8,118.9 717.7,121.3 718.6,123.6 719.5,125.9 720.3,128.1 721.2,130.3 722.1,132.5 722.9,134.6 723.8,136.6 724.7,138.7 725.6,140.7 726.4,142.7 727.3,144.7 728.2,146.7 729.0,148.7 729.9,150.7 730.8,152.7 731.7,154.7 732.5,156.7 733.4,158.8 734.3,160.9 735.1,163.0 736.0,165.1 736.9,167.3 737.7,169.4 738.6,171.6 739.5,173.8 740.4,176.0 741.2,178.1 742.1,180.0 743.0,181.8 743.8,183.3 744.7,184.4 745.6,185.1 746.5,185.3 747.3,184.9 748.2,184.0 749.1,182.7 749.9,181.0 750.8,179.1 751.7,177.0 752.6,174.8 753.4,172.5 754.3,170.2 755.2,167.9 756.0,165.6 756.9,163.3 757.8,161.1 758.6,158.9 759.5,156.7 760.4,154.5 761.3,152.4 762.1,150.2 763.0,148.1 763.9,146.0 764.7,143.9 765.6,141.8 766.5,139.7 767.4,137.5 768.2,135.4 769.1,133.2 770.0,131.0 770.8,128.8 771.7,126.6 772.6,124.3 773.5,122.1 774.3,119.8 775.2,117.5 776.1,115.3 776.9,113.1 777.8,111.1 778.7,109.3 779.5,107.7 780.4,106.5 781.3,105.7 782.2,105.3 783.0,105.5 783.9,106.1 784.8,107.1 785.6,108.5 786.5,110.1 787.4,111.9 788.3,113.9 789.1,115.8 790.0,117.9 790.9,119.9 791.7,121.9 792.6,123.9 793.5,125.8 794.4,127.7 795.2,129.6 796.1,131.5 797.0,133.3 797.8,135.1 798.7,136.9 799.6,138.6 800.4,140.3 801.3,142.1 802.2,143.8 803.1,145.5 803.9,147.2 804.8,148.9 805.7,150.6 806.5,152.3 807.4,154.0 808.3,155.7 809.2,157.5 810.0,159.3 810.9,161.1 811.8,162.9 812.6,164.7 813.5,166.6 814.4,168.4 815.3,170.3 816.1,172.2 817.0,174.0 817.9,175.8 818.7,177.5 819.6,179.1 820.5,180.6 821.3,181.7 822.2,182.6 823.1,183.2 824.0,183.3 824.8,183.0 825.7,182.4 826.6,181.3 827.4,180.0 828.3,178.4 829.2,176.6 830.1,174.6 830.9,172.6 831.8,170.5 832.7,168.3 833.5,166.2 834.4,164.1 835.3,161.9 836.2,159.8 837.0,157.7 837.9,155.6 838.8,153.6 839.6,151.5 840.5,149.4 841.4,147.4 842.2,145.4 843.1,143.3 844.0,141.3 844.9,139.3 845.7,137.3 846.6,135.2 847.5,133.2 848.3,131.1 849.2,129.1 850.1,127.0 851.0,125.0 851.8,123.0 852.7,121.0 853.6,119.1 854.4,117.3 855.3,115.7 856.2,114.2 857.1,112.9 857.9,111.9 858.8,111.2 859.7,110.9 860.5,110.9 861.4,111.3 862.3,111.9 863.1,112.9 864.0,114.0 864.9,115.4 865.8,116.9 866.6,118.5 867.5,120.1 868.4,121.8 869.2,123.5 870.1,125.2 871.0,126.9 871.9,128.6 872.7,130.3 873.6,132.0 874.5,133.7 875.3,135.3 876.2,137.0 877.1,138.6 878.0,140.2 878.8,141.8 879.7,143.4 880.6,145.0 881.4,146.5 882.3,148.1 883.2,149.7 884.0,151.3 884.9,152.9 885.8,154.4 886.7,156.0 887.5,157.6 888.4,159.2 889.3,160.7 890.1,162.3 891.0,163.8 891.9,165.3 892.8,166.7 893.6,168.0 894.5,169.3 895.4,170.4 896.2,171.4 897.1,172.2 898.0,172.8 898.8,173.1 899.7,173.2 900.6,172.9 901.5,172.5 902.3,171.7 903.2,170.7 904.1,169.5 904.9,168.1 905.8,166.6 906.7,165.0 907.6,163.3 908.4,161.5 909.3,159.6 910.2,157.7 911.0,155.8 911.9,153.9 912.8,152.0 913.7,150.0 914.5,148.1 915.4,146.1 916.3,144.2 917.1,142.2 918.0,140.3 918.9,138.4 919.7,136.4 920.6,134.5 921.5,132.6 922.4,130.8 923.2,128.9 924.1,127.1 925.0,125.4 925.8,123.8 926.7,122.2 927.6,120.8 928.5,119.5 929.3,118.5 930.2,117.6 931.1,116.9 931.9,116.5 932.8,116.3 933.7,116.4 934.6,116.8 935.4,117.3 936.3,118.1 937.2,119.0 938.0,120.0 938.9,121.2 939.8,122.4" fill="none" stroke="#b5462d" stroke-width="1.2" stroke-dasharray=""/><polyline points="60.0,173.4 60.6,172.2 61.3,171.0 61.9,169.8 62.6,168.5 63.2,167.3 63.9,166.0 64.5,164.8 65.2,163.5 65.8,162.2 66.5,160.9 67.1,159.6 67.8,158.2 68.4,156.9 69.1,155.4 69.7,154.0 70.4,152.5 71.0,151.0 71.6,149.4 72.3,147.7 72.9,146.0 73.6,144.3 74.2,142.4 74.9,140.5 75.5,138.4 76.2,136.3 76.8,134.0 77.5,131.6 78.1,129.0 78.8,126.2 79.4,123.2 80.1,119.8 80.7,116.2 81.4,112.2 82.0,107.7 82.6,102.8 83.3,97.4 83.9,91.7 84.6,86.7 85.2,83.9 85.9,84.9 86.5,89.2 87.2,94.9 87.8,100.7 88.5,106.1 89.1,111.0 89.8,115.4 90.4,119.5 91.1,123.2 91.7,126.5 92.4,129.7 93.0,132.6 93.6,135.3 94.3,137.9 94.9,140.3 95.6,142.6 96.2,144.8 96.9,147.0 97.5,149.0 98.2,151.0 98.8,152.9 99.5,154.8 100.1,156.6 100.8,158.4 101.4,160.1 102.1,161.8 102.7,163.5 103.4,165.2 104.0,166.8 104.6,168.5 105.3,170.1 105.9,171.7 106.6,173.4 107.2,175.0 107.9,176.6 108.5,178.3 109.2,179.9 109.8,181.6 110.5,183.3 111.1,185.0 111.8,186.7 112.4,188.5 113.1,190.3 113.7,192.2 114.4,194.1 115.0,196.1 115.6,198.1 116.3,200.2 116.9,202.4 117.6,204.7 118.2,207.0 118.9,209.6 119.5,212.2 120.2,215.0 120.8,218.0 121.5,221.1 122.1,224.5 122.8,228.2 123.4,232.1 124.1,236.2 124.7,240.4 125.4,244.6 126.0,248.3 126.6,250.8 127.3,251.5 127.9,250.1 128.6,247.2 129.2,243.5 129.9,239.5 130.5,235.6 131.2,231.9 131.8,228.5 132.5,225.3 133.1,222.3 133.8,219.5 134.4,217.0 135.1,214.6 135.7,212.3 136.4,210.2 137.0,208.2 137.6,206.3 138.3,204.5 138.9,202.8 139.6,201.1 140.2,199.6 140.9,198.0 141.5,196.6 142.2,195.2 142.8,193.8 143.5,192.5 144.1,191.2 144.8,190.0 145.4,188.7 146.1,187.5 146.7,186.4 147.4,185.2 148.0,184.1 148.6,183.0 149.3,181.9 149.9,180.9 150.6,179.8 151.2,178.8 151.9,177.8 152.5,176.7 153.2,175.7 153.8,174.7 154.5,173.7 155.1,172.7 155.8,171.7 156.4,170.7 157.1,169.7 157.7,168.7 158.4,167.7 159.0,166.7 159.6,165.7 160.3,164.7 160.9,163.7 161.6,162.6 162.2,161.6 162.9,160.5 163.5,159.5 164.2,158.4 164.8,157.3 165.5,156.1 166.1,155.0 166.8,153.8 167.4,152.6 168.1,151.3 168.7,150.1 169.4,148.8 170.0,147.4 170.6,146.0 171.3,144.5 171.9,143.0 172.6,141.5 173.2,139.8 173.9,138.1 174.5,136.3 175.2,134.4 175.8,132.3 176.5,130.2 177.1,127.9 177.8,125.5 178.4,122.9 179.1,120.2 179.7,117.2 180.4,114.1 181.0,110.9 181.6,107.7 182.3,104.6 182.9,101.9 183.6,100.3 184.2,100.0 184.9,101.2 185.5,103.7 186.2,107.0 186.8,110.8 187.5,114.7 188.1,118.5 188.8,122.2 189.4,125.7 190.1,129.1 190.7,132.3 191.4,135.3 192.0,138.2 192.6,141.0 193.3,143.7 193.9,146.3 194.6,148.9 195.2,151.3 195.9,153.7 196.5,156.1 197.2,158.4 197.8,160.7 198.5,163.0 199.1,165.3 199.8,167.5 200.4,169.8 201.1,172.1 201.7,174.4 202.4,176.7 203.0,179.1 203.6,181.5 204.3,183.9 204.9,186.5 205.6,189.1 206.2,191.7 206.9,194.5 207.5,197.4 208.2,200.4 208.8,203.6 209.5,206.9 210.1,210.3 210.8,213.8 211.4,217.4 212.1,221.0 212.7,224.3 213.4,227.1 214.0,229.0 214.6,229.7 215.3,229.1 215.9,227.4 216.6,224.9 217.2,222.1 217.9,219.1 218.5,216.1 219.2,213.2 219.8,210.5 220.5,207.8 221.1,205.4 221.8,203.1 222.4,200.9 223.1,198.8 223.7,196.8 224.4,194.9 225.0,193.1 225.6,191.4 226.3,189.8 226.9,188.2 227.6,186.7 228.2,185.2 228.9,183.8 229.5,182.4 230.2,181.1 230.8,179.7 231.5,178.5 232.1,177.2 232.8,176.0 233.4,174.8 234.1,173.6 234.7,172.4 235.4,171.2 236.0,170.1 236.6,168.9 237.3,167.8 237.9,166.6 238.6,165.5 239.2,164.3 239.9,163.2 240.5,162.0 241.2,160.8 241.8,159.7 242.5,158.5 243.1,157.3 243.8,156.1 244.4,154.8 245.1,153.5 245.7,152.2 246.4,150.9 247.0,149.5 247.6,148.1 248.3,146.7 248.9,145.2 249.6,143.6 250.2,142.0 250.9,140.3 251.5,138.5 252.2,136.6 252.8,134.7 253.5,132.6 254.1,130.4 254.8,128.1 255.4,125.7 256.1,123.1 256.7,120.4 257.4,117.6 258.0,114.8 258.6,112.1 259.3,109.8 259.9,108.1 260.6,107.4 261.2,108.0 261.9,109.7 262.5,112.5 263.2,115.8 263.8,119.4 264.5,123.2 265.1,126.9 265.8,130.6 266.4,134.2 267.1,137.6 267.7,140.9 268.4,144.2 269.0,147.3 269.6,150.4 270.3,153.4 270.9,156.4 271.6,159.3 272.2,162.2 272.9,165.1 273.5,168.0 274.2,171.0 274.8,174.0 275.5,177.0 276.1,180.1 276.8,183.2 277.4,186.4 278.1,189.8 278.7,193.2 279.4,196.7 280.0,200.2 280.6,203.7 281.3,207.2 281.9,210.4 282.6,213.1 283.2,215.0 283.9,216.0 284.5,215.9 285.2,214.8 285.8,213.0 286.5,210.8 287.1,208.3 287.8,205.7 288.4,203.2 289.1,200.8 289.7,198.4 290.4,196.2 291.0,194.0 291.6,192.0 292.3,190.1 292.9,188.3 293.6,186.5 294.2,184.9 294.9,183.3 295.5,181.8 296.2,180.3 296.8,178.9 297.5,177.5 298.1,176.2 298.8,174.9 299.4,173.7 300.1,172.5 300.7,171.3 301.4,170.1 302.0,169.0 302.6,167.9 303.3,166.8 303.9,165.7 304.6,164.6 305.2,163.6 305.9,162.5 306.5,161.5 307.2,160.4 307.8,159.4 308.5,158.4 309.1,157.3 309.8,156.3 310.4,155.3 311.1,154.2 311.7,153.2 312.4,152.1 313.0,151.1 313.6,150.0 314.3,148.9 314.9,147.8 315.6,146.7 316.2,145.5 316.9,144.3 317.5,143.2 318.2,141.9 318.8,140.7 319.5,139.4 320.1,138.1 320.8,136.7 321.4,135.3 322.1,133.8 322.7,132.3 323.4,130.8 324.0,129.1 324.6,127.4 325.3,125.6 325.9,123.8 326.6,121.8 327.2,119.8 327.9,117.7 328.5,115.5 329.2,113.2 329.8,110.9 330.5,108.7 331.1,106.5 331.8,104.5 332.4,102.9 333.1,101.9 333.7,101.6 334.4,102.1 335.0,103.3 335.6,105.2 336.3,107.6 336.9,110.4 337.6,113.3 338.2,116.2 338.9,119.2 339.5,122.1 340.2,125.0 340.8,127.8 341.5,130.5 342.1,133.1 342.8,135.7 343.4,138.2 344.1,140.7 344.7,143.1 345.4,145.5 346.0,147.8 346.6,150.1 347.3,152.4 347.9,154.6 348.6,156.9 349.2,159.2 349.9,161.4 350.5,163.7 351.2,166.0 351.8,168.3 352.5,170.6 353.1,173.0 353.8,175.4 354.4,177.9 355.1,180.4 355.7,183.0 356.4,185.6 357.0,188.3 357.6,191.0 358.3,193.8 358.9,196.6 359.6,199.4 360.2,202.0 360.9,204.5 361.5,206.7 362.2,208.5 362.8,209.6 363.5,210.1 364.1,209.9 364.8,209.1 365.4,207.8 366.1,206.1 366.7,204.2 367.4,202.2 368.0,200.1 368.6,198.0 369.3,195.9 369.9,193.9 370.6,192.0 371.2,190.2 371.9,188.4 372.5,186.6 373.2,185.0 373.8,183.4 374.5,181.9 375.1,180.4 375.8,179.0 376.4,177.6 377.1,176.3 377.7,175.0 378.4,173.7 379.0,172.5 379.6,171.3 380.3,170.2 380.9,169.0 381.6,167.9 382.2,166.8 382.9,165.8 383.5,164.7 384.2,163.7 384.8,162.6 385.5,161.6 386.1,160.6 386.8,159.6 387.4,158.6 388.1,157.7 388.7,156.7 389.4,155.7 390.0,154.7 390.6,153.8 391.3,152.8 391.9,151.8 392.6,150.9 393.2,149.9 393.9,148.9 394.5,147.9 395.2,146.9 395.8,145.9 396.5,144.9 397.1,143.8 397.8,142.8 398.4,141.7 399.1,140.6 399.7,139.5 400.4,138.4 401.0,137.2 401.6,136.1 402.3,134.9 402.9,133.6 403.6,132.3 404.2,131.0 404.9,129.7 405.5,128.3 406.2,126.9 406.8,125.4 407.5,123.8 408.1,122.2 408.8,120.6 409.4,118.8 410.1,117.1 410.7,115.2 411.4,113.3 412.0,111.4 412.6,109.5 413.3,107.5 413.9,105.7 414.6,103.9 415.2,102.4 415.9,101.2 416.5,100.4 417.2,100.2 417.8,100.5 418.5,101.4 419.1,102.9 419.8,104.7 420.4,106.9 421.1,109.3 421.7,111.8 422.4,114.4 423.0,117.0 423.6,119.6 424.3,122.1 424.9,124.6 425.6,127.1 426.2,129.5 426.9,131.9 427.5,134.2 428.2,136.5 428.8,138.8 429.5,141.0 430.1,143.2 430.8,145.4 431.4,147.6 432.1,149.8 432.7,152.0 433.4,154.1 434.0,156.3 434.6,158.5 435.3,160.7 435.9,163.0 436.6,165.2 437.2,167.5 437.9,169.9 438.5,172.2 439.2,174.6 439.8,177.1 440.5,179.5 441.1,182.0 441.8,184.5 442.4,186.9 443.1,189.3 443.7,191.5 444.4,193.5 445.0,195.2 445.6,196.5 446.3,197.3 446.9,197.5 447.6,197.2 448.2,196.5 448.9,195.3 449.5,193.8 450.2,192.1 450.8,190.2 451.5,188.3 452.1,186.4 452.8,184.5 453.4,182.5 454.1,180.7 454.7,178.9 455.4,177.1 456.0,175.4 456.6,173.7 457.3,172.1 457.9,170.5 458.6,168.9 459.2,167.4 459.9,166.0 460.5,164.5 461.2,163.1 461.8,161.7 462.5,160.4 463.1,159.0 463.8,157.7 464.4,156.4 465.1,155.1 465.7,153.8 466.4,152.5 467.0,151.3 467.6,150.0 468.3,148.7 468.9,147.5 469.6,146.2 470.2,144.9 470.9,143.6 471.5,142.3 472.2,141.0 472.8,139.6 473.5,138.3 474.1,136.9 474.8,135.5 475.4,134.1 476.1,132.6 476.7,131.1 477.4,129.6 478.0,128.0 478.6,126.4 479.3,124.8 479.9,123.1 480.6,121.4 481.2,119.6 481.9,117.8 482.5,116.0 483.2,114.2 483.8,112.4 484.5,110.7 485.1,109.0 485.8,107.5 486.4,106.3 487.1,105.3 487.7,104.7 488.4,104.6 489.0,105.0 489.6,105.8 490.3,107.0 490.9,108.5 491.6,110.4 492.2,112.4 492.9,114.6 493.5,116.9 494.2,119.2 494.8,121.5 495.5,123.8 496.1,126.1 496.8,128.4 497.4,130.7 498.1,132.9 498.7,135.1 499.4,137.3 500.0,139.4 500.6,141.5 501.3,143.6 501.9,145.7 502.6,147.8 503.2,149.9 503.9,152.0 504.5,154.1 505.2,156.2 505.8,158.3 506.5,160.4 507.1,162.6 507.8,164.7 508.4,166.9 509.1,169.1 509.7,171.3 510.4,173.5 511.0,175.7 511.6,177.9 512.3,180.0 512.9,182.1 513.6,184.0 514.2,185.8 514.9,187.4 515.5,188.6 516.2,189.5 516.8,190.0 517.5,190.1 518.1,189.7 518.8,189.1 519.4,188.1 520.1,186.8 520.7,185.4 521.4,183.8 522.0,182.2 522.6,180.5 523.3,178.8 523.9,177.1 524.6,175.4 525.2,173.7 525.9,172.0 526.5,170.4 527.2,168.8 527.8,167.3 528.5,165.8 529.1,164.3 529.8,162.8 530.4,161.4 531.1,160.0 531.7,158.6 532.4,157.2 533.0,155.9 533.6,154.5 534.3,153.2 534.9,151.9 535.6,150.6 536.2,149.3 536.9,148.1 537.5,146.8 538.2,145.5 538.8,144.2 539.5,143.0 540.1,141.7 540.8,140.4 541.4,139.1 542.1,137.8 542.7,136.5 543.4,135.1 544.0,133.8 544.6,132.4 545.3,131.0 545.9,129.6 546.6,128.2 547.2,126.7 547.9,125.2 548.5,123.7 549.2,122.2 549.8,120.6 550.5,119.0 551.1,117.4 551.8,115.7 552.4,114.1 553.1,112.4 553.7,110.8 554.4,109.1 555.0,107.6 555.6,106.1 556.3,104.7 556.9,103.5 557.6,102.5 558.2,101.8 558.9,101.3 559.5,101.2 560.2,101.5 560.8,102.1 561.5,103.0 562.1,104.1 562.8,105.5 563.4,107.1 564.1,108.7 564.7,110.5 565.4,112.3 566.0,114.2 566.6,116.0 567.3,117.9 567.9,119.7 568.6,121.5 569.2,123.3 569.9,125.1 570.5,126.9 571.2,128.6 571.8,130.3 572.5,132.0 573.1,133.6 573.8,135.3 574.4,136.9 575.1,138.5 575.7,140.1 576.4,141.7 577.0,143.3 577.6,144.8 578.3,146.4 578.9,148.0 579.6,149.5 580.2,151.1 580.9,152.7 581.5,154.3 582.2,155.9 582.8,157.5 583.5,159.1 584.1,160.7 584.8,162.3 585.4,164.0 586.1,165.7 586.7,167.4 587.4,169.1 588.0,170.8 588.6,172.6 589.3,174.3 589.9,176.1 590.6,177.8 591.2,179.5 591.9,181.1 592.5,182.7 593.2,184.2 593.8,185.5 594.5,186.7 595.1,187.7 595.8,188.4 596.4,188.8 597.1,188.9 597.7,188.7 598.4,188.3 599.0,187.6 599.6,186.6 600.3,185.5 600.9,184.2 601.6,182.8 602.2,181.3 602.9,179.8 603.5,178.2 604.2,176.6 604.8,175.0 605.5,173.4 606.1,171.9 606.8,170.3 607.4,168.8 608.1,167.3 608.7,165.8 609.4,164.3 610.0,162.8 610.6,161.4 611.3,160.0 611.9,158.6 612.6,157.2 613.2,155.8 613.9,154.5 614.5,153.1 615.2,151.8 615.8,150.5 616.5,149.2 617.1,147.8 617.8,146.5 618.4,145.2 619.1,143.9 619.7,142.6 620.4,141.3 621.0,139.9 621.6,138.6 622.3,137.3 622.9,135.9 623.6,134.5 624.2,133.2 624.9,131.8 625.5,130.4 626.2,129.0 626.8,127.5 627.5,126.1 628.1,124.6 628.8,123.1 629.4,121.6 630.1,120.1 630.7,118.6 631.4,117.1 632.0,115.6 632.6,114.1 633.3,112.7 633.9,111.3 634.6,110.0 635.2,108.8 635.9,107.7 636.5,106.7 637.2,106.0 637.8,105.5 638.5,105.2 639.1,105.2 639.8,105.4 640.4,105.9 641.1,106.6 641.7,107.5 642.4,108.6 643.0,109.9 643.6,111.2 644.3,112.6 644.9,114.1 645.6,115.7 646.2,117.2 646.9,118.8 647.5,120.4 648.2,122.0 648.8,123.6 649.5,125.1 650.1,126.7 650.8,128.2 651.4,129.8 652.1,131.3 652.7,132.8 653.4,134.2 654.0,135.7 654.6,137.2 655.3,138.6 655.9,140.1 656.6,141.5 657.2,142.9 657.9,144.3 658.5,145.8 659.2,147.2 659.8,148.6 660.5,150.0 661.1,151.4 661.8,152.9 662.4,154.3 663.1,155.7 663.7,157.2 664.4,158.6 665.0,160.0 665.6,161.5 666.3,163.0 666.9,164.4 667.6,165.9 668.2,167.3 668.9,168.8 669.5,170.2 670.2,171.5 670.8,172.9 671.5,174.2 672.1,175.4 672.8,176.5 673.4,177.4 674.1,178.3 674.7,179.0 675.4,179.5 676.0,179.8 676.6,179.8 677.3,179.7 677.9,179.4 678.6,178.8 679.2,178.1 679.9,177.2 680.5,176.2 681.2,175.1 681.8,173.8 682.5,172.5 683.1,171.1 683.8,169.7 684.4,168.3 685.1,166.8 685.7,165.3 686.4,163.8 687.0,162.3 687.6,160.8 688.3,159.3 688.9,157.9 689.6,156.4 690.2,154.9 690.9,153.4 691.5,152.0 692.2,150.5 692.8,149.1 693.5,147.6 694.1,146.2 694.8,144.7 695.4,143.3 696.1,141.9 696.7,140.4 697.4,139.0 698.0,137.5 698.6,136.1 699.3,134.6 699.9,133.2 700.6,131.7 701.2,130.3 701.9,128.9 702.5,127.4 703.2,126.0 703.8,124.6 704.5,123.3 705.1,121.9 705.8,120.6 706.4,119.4 707.1,118.3 707.7,117.2 708.4,116.3 709.0,115.4 709.6,114.8 710.3,114.3 710.9,113.9 711.6,113.8 712.2,113.8 712.9,114.0 713.5,114.4 714.2,114.9 714.8,115.6 715.5,116.4 716.1,117.4 716.8,118.4 717.4,119.5 718.1,120.7 718.7,121.9 719.4,123.1 720.0,124.4 720.6,125.7 721.3,127.0 721.9,128.3 722.6,129.7 723.2,131.0 723.9,132.3 724.5,133.6 725.2,135.0 725.8,136.3 726.5,137.6 727.1,138.9 727.8,140.2 728.4,141.5 729.1,142.8 729.7,144.0 730.4,145.3 731.0,146.6 731.6,147.9 732.3,149.2 732.9,150.4 733.6,151.7 734.2,153.0 734.9,154.3 735.5,155.6 736.2,156.8 736.8,158.1 737.5,159.4 738.1,160.7 738.8,161.9 739.4,163.2 740.1,164.5 740.7,165.7 741.4,166.9 742.0,168.1 742.6,169.2 743.3,170.3 743.9,171.4 744.6,172.4 745.2,173.3 745.9,174.1 746.5,174.8 747.2,175.3 747.8,175.8 748.5,176.0 749.1,176.2 749.8,176.1 750.4,175.9 751.1,175.6 751.7,175.1 752.4,174.5 753.0,173.7 753.6,172.8 754.3,171.9 754.9,170.8 755.6,169.7 756.2,168.5 756.9,167.3 757.5,166.0 758.2,164.7 758.8,163.4 759.5,162.1 760.1,160.8 760.8,159.4 761.4,158.1 762.1,156.7 762.7,155.3 763.4,154.0 764.0,152.6 764.6,151.3 765.3,149.9 765.9,148.6 766.6,147.2 767.2,145.9 767.9,144.5 768.5,143.2 769.2,141.8 769.8,140.5 770.5,139.1 771.1,137.8 771.8,136.4 772.4,135.1 773.1,133.7 773.7,132.4 774.4,131.0 775.0,129.7 775.6,128.4 776.3,127.1 776.9,125.8 777.6,124.5 778.2,123.2 778.9,122.0 779.5,120.9 780.2,119.8 780.8,118.7 781.5,117.8 782.1,116.9 782.8,116.1 783.4,115.5 784.1,114.9 784.7,114.5 785.4,114.3 786.0,114.2 786.6,114.2 787.3,114.4 787.9,114.7 788.6,115.2 789.2,115.7 789.9,116.4 790.5,117.2 791.2,118.0 791.8,118.9 792.5,119.9 793.1,120.9 793.8,122.0 794.4,123.0 795.1,124.2 795.7,125.3 796.4,126.4 797.0,127.5 797.6,128.7 798.3,129.8 798.9,131.0 799.6,132.1 800.2,133.2 800.9,134.4 801.5,135.5 802.2,136.6 802.8,137.8 803.5,138.9 804.1,140.0 804.8,141.1 805.4,142.2 806.1,143.3 806.7,144.4 807.4,145.5 808.0,146.6 808.6,147.7 809.3,148.8 809.9,149.9 810.6,151.0 811.2,152.1 811.9,153.2 812.5,154.3 813.2,155.4 813.8,156.5 814.5,157.6 815.1,158.7 815.8,159.8 816.4,160.9 817.1,162.0 817.7,163.0 818.4,164.1 819.0,165.1 819.6,166.1 820.3,167.1 820.9,168.0 821.6,168.9 822.2,169.8 822.9,170.6 823.5,171.3 824.2,172.0 824.8,172.6 825.5,173.0 826.1,173.4 826.8,173.7 827.4,173.8 828.1,173.8 828.7,173.7 829.4,173.5 830.0,173.1 830.6,172.6 831.3,172.0 831.9,171.4 832.6,170.6 833.2,169.7 833.9,168.8 834.5,167.8 835.2,166.7 835.8,165.6 836.5,164.5 837.1,163.3 837.8,162.1 838.4,160.9 839.1,159.7 839.7,158.4 840.4,157.1 841.0,155.9 841.6,154.6 842.3,153.3 842.9,152.1 843.6,150.8 844.2,149.5 844.9,148.2 845.5,147.0 846.2,145.7 846.8,144.4 847.5,143.2 848.1,141.9 848.8,140.7 849.4,139.4 850.1,138.2 850.7,136.9 851.4,135.7 852.0,134.5 852.6,133.3 853.3,132.1 853.9,130.9 854.6,129.7 855.2,128.6 855.9,127.5 856.5,126.5 857.2,125.5 857.8,124.5 858.5,123.6 859.1,122.8 859.8,122.0 860.4,121.3 861.1,120.7 861.7,120.2 862.4,119.8 863.0,119.5 863.6,119.3 864.3,119.2 864.9,119.3 865.6,119.4 866.2,119.6 866.9,120.0 867.5,120.4 868.2,120.9 868.8,121.5 869.5,122.1 870.1,122.8 870.8,123.6 871.4,124.4 872.1,125.2 872.7,126.1 873.4,127.0 874.0,127.9 874.6,128.9 875.3,129.8 875.9,130.8 876.6,131.8 877.2,132.8 877.9,133.8 878.5,134.8 879.2,135.8 879.8,136.8 880.5,137.8 881.1,138.8 881.8,139.8 882.4,140.7 883.1,141.7 883.7,142.7 884.4,143.7 885.0,144.7 885.6,145.7 886.3,146.7 886.9,147.6 887.6,148.6 888.2,149.6 888.9,150.5 889.5,151.5 890.2,152.4 890.8,153.3 891.5,154.3 892.1,155.2 892.8,156.1 893.4,156.9 894.1,157.8 894.7,158.6 895.4,159.4 896.0,160.2 896.6,160.9 897.3,161.6 897.9,162.3 898.6,162.9 899.2,163.4 899.9,163.9 900.5,164.3 901.2,164.7 901.8,164.9 902.5,165.1 903.1,165.2 903.8,165.2 904.4,165.1 905.1,164.9 905.7,164.6 906.4,164.3 907.0,163.8 907.6,163.3 908.3,162.7 908.9,162.0 909.6,161.3 910.2,160.5 910.9,159.6 911.5,158.7 912.2,157.8 912.8,156.8 913.5,155.8 914.1,154.7 914.8,153.6 915.4,152.6 916.1,151.5 916.7,150.3 917.4,149.2 918.0,148.1 918.6,146.9 919.3,145.8 919.9,144.6 920.6,143.5 921.2,142.3 921.9,141.2 922.5,140.0 923.2,138.9 923.8,137.8 924.5,136.7 925.1,135.6 925.8,134.5 926.4,133.4 927.1,132.4 927.7,131.4 928.4,130.4 929.0,129.4 929.6,128.5 930.3,127.7 930.9,126.9 931.6,126.1 932.2,125.4 932.9,124.8 933.5,124.2 934.2,123.7 934.8,123.3 935.5,123.0 936.1,122.7 936.8,122.6 937.4,122.5 938.1,122.5 938.7,122.6 939.4,122.8 940.0,123.0" fill="none" stroke="#1f5f8b" stroke-width="1.8" stroke-dasharray=""/><text x="70.0" y="316.0" font-size="11" fill="#1f5f8b" text-anchor="start">blue: transfer-matrix reference (build time)</text><text x="70.0" y="332.0" font-size="11" fill="#b5462d" text-anchor="start">red: the runtime waveguide, measured by a puff of flow at the lips</text><text x="70.0" y="348.0" font-size="11" fill="#8a867a" text-anchor="start">grey dashes: n x 58.27 Hz, the harmonic series of the nominal fundamental. Peak 1 sits well below its dash; 2 and up sit on theirs.</text></svg>