<svg xmlns="http://www.w3.org/2000/svg" viewBox="0 0 720 400" font-family="sans-serif"><rect width="100%" height="100%" fill="#f7f6f2"/><rect x="70" y="34" width="620" height="300" fill="#ffffff" stroke="#c9c4b8"/><line x1="70.0" y1="34" x2="70.0" y2="334" stroke="#ece8de"/><text x="70.0" y="347.0" font-size="10" fill="#55524a" text-anchor="middle">0</text><line x1="147.5" y1="34" x2="147.5" y2="334" stroke="#ece8de"/><text x="147.5" y="347.0" font-size="10" fill="#55524a" text-anchor="middle">25</text><line x1="225.0" y1="34" x2="225.0" y2="334" stroke="#ece8de"/><text x="225.0" y="347.0" font-size="10" fill="#55524a" text-anchor="middle">50</text><line x1="302.5" y1="34" x2="302.5" y2="334" stroke="#ece8de"/><text x="302.5" y="347.0" font-size="10" fill="#55524a" text-anchor="middle">75</text><line x1="380.0" y1="34" x2="380.0" y2="334" stroke="#ece8de"/><text x="380.0" y="347.0" font-size="10" fill="#55524a" text-anchor="middle">100</text><line x1="457.5" y1="34" x2="457.5" y2="334" stroke="#ece8de"/><text x="457.5" y="347.0" font-size="10" fill="#55524a" text-anchor="middle">125</text><line x1="535.0" y1="34" x2="535.0" y2="334" stroke="#ece8de"/><text x="535.0" y="347.0" font-size="10" fill="#55524a" text-anchor="middle">150</text><line x1="612.5" y1="34" x2="612.5" y2="334" stroke="#ece8de"/><text x="612.5" y="347.0" font-size="10" fill="#55524a" text-anchor="middle">175</text><line x1="690.0" y1="34" x2="690.0" y2="334" stroke="#ece8de"/><text x="690.0" y="347.0" font-size="10" fill="#55524a" text-anchor="middle">200</text><line x1="70" y1="334.0" x2="690" y2="334.0" stroke="#ece8de"/><text x="66.0" y="337.0" font-size="10" fill="#55524a" text-anchor="end">0</text><line x1="70" y1="296.5" x2="690" y2="296.5" stroke="#ece8de"/><text x="66.0" y="299.5" font-size="10" fill="#55524a" text-anchor="end">1</text><line x1="70" y1="259.0" x2="690" y2="259.0" stroke="#ece8de"/><text x="66.0" y="262.0" font-size="10" fill="#55524a" text-anchor="end">2</text><line x1="70" y1="221.5" x2="690" y2="221.5" stroke="#ece8de"/><text x="66.0" y="224.5" font-size="10" fill="#55524a" text-anchor="end">3</text><line x1="70" y1="184.0" x2="690" y2="184.0" stroke="#ece8de"/><text x="66.0" y="187.0" font-size="10" fill="#55524a" text-anchor="end">4</text><line x1="70" y1="146.5" x2="690" y2="146.5" stroke="#ece8de"/><text x="66.0" y="149.5" font-size="10" fill="#55524a" text-anchor="end">5</text><line x1="70" y1="109.0" x2="690" y2="109.0" stroke="#ece8de"/><text x="66.0" y="112.0" font-size="10" fill="#55524a" text-anchor="end">6</text><line x1="70" y1="71.5" x2="690" y2="71.5" stroke="#ece8de"/><text x="66.0" y="74.5" font-size="10" fill="#55524a" text-anchor="end">7</text><line x1="70" y1="34.0" x2="690" y2="34.0" stroke="#ece8de"/><text x="66.0" y="37.0" font-size="10" fill="#55524a" text-anchor="end">8</text><text x="70.0" y="26.0" font-size="13" fill="#2a2925" text-anchor="start" font-weight="bold">Snare wire groups off the head after a 2 m/s stick, by preload</text><text x="380.0" y="362.0" font-size="11" fill="#55524a" text-anchor="middle">time after the hit, ms</text><text transform="translate(30,184) rotate(-90)" font-size="11" fill="#55524a" text-anchor="middle">groups off the head (of 8), mean over 2 ms</text><polyline points="70.0,279.5 76.2,66.4 82.4,34.0 88.6,58.7 94.8,112.8 101.0,80.4 107.2,46.4 113.4,48.1 119.6,89.4 125.8,106.4 132.0,49.3 138.2,53.2 144.4,112.0 150.6,153.7 156.8,48.5 163.0,52.3 169.2,107.3 175.4,100.1 181.6,71.9 187.8,61.3 194.0,110.3 200.2,51.9 206.4,112.0 212.6,66.8 218.8,100.9 225.0,76.6 231.2,133.7 237.4,105.6 243.6,146.1 249.8,164.8 256.0,175.5 262.2,181.0 268.4,154.2 274.6,169.9 280.8,220.6 287.0,247.5 293.2,228.7 299.4,205.7 305.6,236.8 311.8,259.4 318.0,286.3 324.2,274.8 330.4,276.0 336.6,258.6 342.8,267.9 349.0,272.2 355.2,273.9 361.4,289.3 367.6,270.5 373.8,291.4 380.0,295.2 386.2,297.4 392.4,293.5 398.6,295.6 404.8,317.0 411.0,311.4 417.2,323.8 423.4,334.0 429.6,334.0 435.8,334.0 442.0,334.0 448.2,334.0 454.4,334.0 460.6,334.0 466.8,334.0 473.0,334.0 479.2,334.0 485.4,334.0 491.6,334.0 497.8,334.0 504.0,334.0 510.2,334.0 516.4,334.0 522.6,334.0 528.8,334.0 535.0,334.0 541.2,334.0 547.4,334.0 553.6,334.0 559.8,334.0 566.0,334.0 572.2,334.0 578.4,334.0 584.6,334.0 590.8,334.0 597.0,334.0 603.2,334.0 609.4,334.0 615.6,334.0 621.8,334.0 628.0,334.0 634.2,334.0 640.4,334.0 646.6,334.0 652.8,334.0 659.0,334.0 665.2,334.0 671.4,334.0 677.6,334.0 683.8,334.0 690.0,334.0 690.0,334.0 690.0,334.0 690.0,334.0 690.0,334.0 690.0,334.0 690.0,334.0 690.0,334.0 690.0,334.0 690.0,334.0 690.0,334.0 690.0,334.0 690.0,334.0 690.0,334.0 690.0,334.0 690.0,334.0 690.0,334.0 690.0,334.0 690.0,334.0 690.0,334.0 690.0,334.0 690.0,334.0 690.0,334.0 690.0,334.0 690.0,334.0 690.0,334.0 690.0,334.0 690.0,334.0 690.0,334.0 690.0,334.0 690.0,334.0 690.0,334.0 690.0,334.0 690.0,334.0 690.0,334.0 690.0,334.0 690.0,334.0 690.0,334.0 690.0,334.0 690.0,334.0 690.0,334.0 690.0,334.0 690.0,334.0 690.0,334.0 690.0,334.0 690.0,334.0 690.0,334.0 690.0,334.0 690.0,334.0 690.0,334.0 690.0,334.0 690.0,334.0 690.0,334.0 690.0,334.0 690.0,334.0 690.0,334.0 690.0,334.0 690.0,334.0 690.0,334.0 690.0,334.0 690.0,334.0 690.0,334.0 690.0,334.0 690.0,334.0 690.0,334.0 690.0,334.0 690.0,334.0 690.0,334.0 690.0,334.0 690.0,334.0 690.0,334.0 690.0,334.0 690.0,334.0 690.0,334.0 690.0,334.0 690.0,334.0 690.0,334.0 690.0,334.0 690.0,334.0 690.0,334.0 690.0,334.0 690.0,334.0 690.0,334.0 690.0,334.0 690.0,334.0 690.0,334.0 690.0,334.0 690.0,334.0 690.0,334.0 690.0,334.0 690.0,334.0 690.0,334.0 690.0,334.0 690.0,334.0 690.0,334.0 690.0,334.0 690.0,334.0 690.0,334.0 690.0,334.0 690.0,334.0 690.0,334.0 690.0,334.0 690.0,334.0 690.0,334.0 690.0,334.0 690.0,334.0 690.0,334.0 690.0,334.0 690.0,334.0 690.0,334.0 690.0,334.0 690.0,334.0 690.0,334.0 690.0,334.0 690.0,334.0 690.0,334.0 690.0,334.0 690.0,334.0 690.0,334.0 690.0,334.0 690.0,334.0 690.0,334.0 690.0,334.0 690.0,334.0 690.0,334.0 690.0,334.0 690.0,334.0 690.0,334.0 690.0,334.0 690.0,334.0 690.0,334.0 690.0,334.0 690.0,334.0 690.0,334.0 690.0,334.0 690.0,334.0 690.0,334.0 690.0,334.0 690.0,334.0 690.0,334.0 690.0,334.0 690.0,334.0 690.0,334.0 690.0,334.0 690.0,334.0 690.0,334.0 690.0,334.0 690.0,334.0 690.0,334.0 690.0,334.0 690.0,334.0 690.0,334.0 690.0,334.0 690.0,334.0 690.0,334.0 690.0,334.0 690.0,334.0 690.0,334.0 690.0,334.0 690.0,334.0 690.0,334.0 690.0,334.0 690.0,334.0 690.0,334.0 690.0,334.0 690.0,334.0 690.0,334.0 690.0,334.0 690.0,334.0 690.0,334.0 690.0,334.0 690.0,334.0 690.0,334.0 690.0,334.0 690.0,334.0 690.0,334.0 690.0,334.0 690.0,334.0 690.0,334.0 690.0,334.0 690.0,334.0 690.0,334.0 690.0,334.0 690.0,334.0 690.0,334.0 690.0,334.0 690.0,334.0 690.0,334.0 690.0,334.0 690.0,334.0 690.0,334.0 690.0,334.0 690.0,334.0 690.0,334.0 690.0,334.0 690.0,334.0 690.0,334.0 690.0,334.0 690.0,334.0 690.0,334.0 690.0,334.0 690.0,334.0 690.0,334.0 690.0,334.0 690.0,334.0 690.0,334.0 690.0,334.0 690.0,334.0 690.0,334.0 690.0,334.0 690.0,334.0 690.0,334.0 690.0,334.0 690.0,334.0 690.0,334.0 690.0,334.0 690.0,334.0 690.0,334.0 690.0,334.0 690.0,334.0 690.0,334.0 690.0,334.0 690.0,334.0 690.0,334.0 690.0,334.0 690.0,334.0 690.0,334.0 690.0,334.0 690.0,334.0 690.0,334.0 690.0,334.0 690.0,334.0 690.0,334.0 690.0,334.0 690.0,334.0 690.0,334.0 690.0,334.0 690.0,334.0 690.0,334.0 690.0,334.0 690.0,334.0 690.0,334.0 690.0,334.0 690.0,334.0 690.0,334.0 690.0,334.0 690.0,334.0 690.0,334.0 690.0,334.0 690.0,334.0 690.0,334.0 690.0,334.0 690.0,334.0 690.0,334.0 690.0,334.0 690.0,334.0 690.0,334.0 690.0,334.0 690.0,334.0 690.0,334.0 690.0,334.0 690.0,334.0 690.0,334.0 690.0,334.0 690.0,334.0 690.0,334.0 690.0,334.0 690.0,334.0 690.0,334.0 690.0,334.0 690.0,334.0 690.0,334.0 690.0,334.0 690.0,334.0 690.0,334.0 690.0,334.0 690.0,334.0 690.0,334.0 690.0,334.0 690.0,334.0 690.0,334.0 690.0,334.0 690.0,334.0 690.0,334.0 690.0,334.0 690.0,334.0 690.0,334.0 690.0,334.0 690.0,334.0 690.0,334.0 690.0,334.0 690.0,334.0 690.0,334.0 690.0,334.0 690.0,334.0 690.0,334.0 690.0,334.0 690.0,334.0 690.0,334.0 690.0,334.0" fill="none" stroke="#3f7d4a" stroke-width="1.8" stroke-dasharray=""/><polyline points="70.0,301.2 76.2,72.4 82.4,34.0 88.6,82.2 94.8,150.3 101.0,76.2 107.2,70.2 113.4,84.7 119.6,110.3 125.8,117.5 132.0,48.5 138.2,99.6 144.4,67.2 150.6,109.0 156.8,71.9 163.0,115.4 169.2,59.1 175.4,130.7 181.6,93.2 187.8,161.0 194.0,71.5 200.2,213.0 206.4,144.8 212.6,230.4 218.8,240.3 225.0,246.2 231.2,248.3 237.4,279.9 243.6,289.3 249.8,277.8 256.0,294.4 262.2,296.1 268.4,302.9 274.6,317.8 280.8,321.2 287.0,324.2 293.2,322.5 299.4,334.0 305.6,334.0 311.8,334.0 318.0,334.0 324.2,334.0 330.4,334.0 336.6,334.0 342.8,334.0 349.0,334.0 355.2,334.0 361.4,334.0 367.6,334.0 373.8,334.0 380.0,334.0 386.2,334.0 392.4,334.0 398.6,334.0 404.8,334.0 411.0,334.0 417.2,334.0 423.4,334.0 429.6,334.0 435.8,334.0 442.0,334.0 448.2,334.0 454.4,334.0 460.6,334.0 466.8,334.0 473.0,334.0 479.2,334.0 485.4,334.0 491.6,334.0 497.8,334.0 504.0,334.0 510.2,334.0 516.4,334.0 522.6,334.0 528.8,334.0 535.0,334.0 541.2,334.0 547.4,334.0 553.6,334.0 559.8,334.0 566.0,334.0 572.2,334.0 578.4,334.0 584.6,334.0 590.8,334.0 597.0,334.0 603.2,334.0 609.4,334.0 615.6,334.0 621.8,334.0 628.0,334.0 634.2,334.0 640.4,334.0 646.6,334.0 652.8,334.0 659.0,334.0 665.2,334.0 671.4,334.0 677.6,334.0 683.8,334.0 690.0,334.0 690.0,334.0 690.0,334.0 690.0,334.0 690.0,334.0 690.0,334.0 690.0,334.0 690.0,334.0 690.0,334.0 690.0,334.0 690.0,334.0 690.0,334.0 690.0,334.0 690.0,334.0 690.0,334.0 690.0,334.0 690.0,334.0 690.0,334.0 690.0,334.0 690.0,334.0 690.0,334.0 690.0,334.0 690.0,334.0 690.0,334.0 690.0,334.0 690.0,334.0 690.0,334.0 690.0,334.0 690.0,334.0 690.0,334.0 690.0,334.0 690.0,334.0 690.0,334.0 690.0,334.0 690.0,334.0 690.0,334.0 690.0,334.0 690.0,334.0 690.0,334.0 690.0,334.0 690.0,334.0 690.0,334.0 690.0,334.0 690.0,334.0 690.0,334.0 690.0,334.0 690.0,334.0 690.0,334.0 690.0,334.0 690.0,334.0 690.0,334.0 690.0,334.0 690.0,334.0 690.0,334.0 690.0,334.0 690.0,334.0 690.0,334.0 690.0,334.0 690.0,334.0 690.0,334.0 690.0,334.0 690.0,334.0 690.0,334.0 690.0,334.0 690.0,334.0 690.0,334.0 690.0,334.0 690.0,334.0 690.0,334.0 690.0,334.0 690.0,334.0 690.0,334.0 690.0,334.0 690.0,334.0 690.0,334.0 690.0,334.0 690.0,334.0 690.0,334.0 690.0,334.0 690.0,334.0 690.0,334.0 690.0,334.0 690.0,334.0 690.0,334.0 690.0,334.0 690.0,334.0 690.0,334.0 690.0,334.0 690.0,334.0 690.0,334.0 690.0,334.0 690.0,334.0 690.0,334.0 690.0,334.0 690.0,334.0 690.0,334.0 690.0,334.0 690.0,334.0 690.0,334.0 690.0,334.0 690.0,334.0 690.0,334.0 690.0,334.0 690.0,334.0 690.0,334.0 690.0,334.0 690.0,334.0 690.0,334.0 690.0,334.0 690.0,334.0 690.0,334.0 690.0,334.0 690.0,334.0 690.0,334.0 690.0,334.0 690.0,334.0 690.0,334.0 690.0,334.0 690.0,334.0 690.0,334.0 690.0,334.0 690.0,334.0 690.0,334.0 690.0,334.0 690.0,334.0 690.0,334.0 690.0,334.0 690.0,334.0 690.0,334.0 690.0,334.0 690.0,334.0 690.0,334.0 690.0,334.0 690.0,334.0 690.0,334.0 690.0,334.0 690.0,334.0 690.0,334.0 690.0,334.0 690.0,334.0 690.0,334.0 690.0,334.0 690.0,334.0 690.0,334.0 690.0,334.0 690.0,334.0 690.0,334.0 690.0,334.0 690.0,334.0 690.0,334.0 690.0,334.0 690.0,334.0 690.0,334.0 690.0,334.0 690.0,334.0 690.0,334.0 690.0,334.0 690.0,334.0 690.0,334.0 690.0,334.0 690.0,334.0 690.0,334.0 690.0,334.0 690.0,334.0 690.0,334.0 690.0,334.0 690.0,334.0 690.0,334.0 690.0,334.0 690.0,334.0 690.0,334.0 690.0,334.0 690.0,334.0 690.0,334.0 690.0,334.0 690.0,334.0 690.0,334.0 690.0,334.0 690.0,334.0 690.0,334.0 690.0,334.0 690.0,334.0 690.0,334.0 690.0,334.0 690.0,334.0 690.0,334.0 690.0,334.0 690.0,334.0 690.0,334.0 690.0,334.0 690.0,334.0 690.0,334.0 690.0,334.0 690.0,334.0 690.0,334.0 690.0,334.0 690.0,334.0 690.0,334.0 690.0,334.0 690.0,334.0 690.0,334.0 690.0,334.0 690.0,334.0 690.0,334.0 690.0,334.0 690.0,334.0 690.0,334.0 690.0,334.0 690.0,334.0 690.0,334.0 690.0,334.0 690.0,334.0 690.0,334.0 690.0,334.0 690.0,334.0 690.0,334.0 690.0,334.0 690.0,334.0 690.0,334.0 690.0,334.0 690.0,334.0 690.0,334.0 690.0,334.0 690.0,334.0 690.0,334.0 690.0,334.0 690.0,334.0 690.0,334.0 690.0,334.0 690.0,334.0 690.0,334.0 690.0,334.0 690.0,334.0 690.0,334.0 690.0,334.0 690.0,334.0 690.0,334.0 690.0,334.0 690.0,334.0 690.0,334.0 690.0,334.0 690.0,334.0 690.0,334.0 690.0,334.0 690.0,334.0 690.0,334.0 690.0,334.0 690.0,334.0 690.0,334.0 690.0,334.0 690.0,334.0 690.0,334.0 690.0,334.0 690.0,334.0 690.0,334.0 690.0,334.0 690.0,334.0 690.0,334.0 690.0,334.0 690.0,334.0 690.0,334.0 690.0,334.0 690.0,334.0 690.0,334.0 690.0,334.0 690.0,334.0 690.0,334.0 690.0,334.0 690.0,334.0 690.0,334.0 690.0,334.0 690.0,334.0 690.0,334.0 690.0,334.0 690.0,334.0 690.0,334.0 690.0,334.0 690.0,334.0 690.0,334.0 690.0,334.0 690.0,334.0 690.0,334.0 690.0,334.0 690.0,334.0 690.0,334.0 690.0,334.0 690.0,334.0 690.0,334.0 690.0,334.0 690.0,334.0 690.0,334.0 690.0,334.0 690.0,334.0 690.0,334.0 690.0,334.0 690.0,334.0 690.0,334.0 690.0,334.0 690.0,334.0 690.0,334.0" fill="none" stroke="#1f5f8b" stroke-width="1.8" stroke-dasharray=""/><polyline points="70.0,333.1 76.2,142.2 82.4,121.8 88.6,103.5 94.8,117.1 101.0,87.7 107.2,128.2 113.4,129.0 119.6,172.9 125.8,181.0 132.0,210.0 138.2,285.4 144.4,236.8 150.6,328.9 156.8,323.8 163.0,334.0 169.2,334.0 175.4,334.0 181.6,334.0 187.8,334.0 194.0,334.0 200.2,334.0 206.4,334.0 212.6,334.0 218.8,334.0 225.0,334.0 231.2,334.0 237.4,334.0 243.6,334.0 249.8,334.0 256.0,334.0 262.2,334.0 268.4,334.0 274.6,334.0 280.8,334.0 287.0,334.0 293.2,334.0 299.4,334.0 305.6,334.0 311.8,334.0 318.0,334.0 324.2,334.0 330.4,334.0 336.6,334.0 342.8,334.0 349.0,334.0 355.2,334.0 361.4,334.0 367.6,334.0 373.8,334.0 380.0,334.0 386.2,334.0 392.4,334.0 398.6,334.0 404.8,334.0 411.0,334.0 417.2,334.0 423.4,334.0 429.6,334.0 435.8,334.0 442.0,334.0 448.2,334.0 454.4,334.0 460.6,334.0 466.8,334.0 473.0,334.0 479.2,334.0 485.4,334.0 491.6,334.0 497.8,334.0 504.0,334.0 510.2,334.0 516.4,334.0 522.6,334.0 528.8,334.0 535.0,334.0 541.2,334.0 547.4,334.0 553.6,334.0 559.8,334.0 566.0,334.0 572.2,334.0 578.4,334.0 584.6,334.0 590.8,334.0 597.0,334.0 603.2,334.0 609.4,334.0 615.6,334.0 621.8,334.0 628.0,334.0 634.2,334.0 640.4,334.0 646.6,334.0 652.8,334.0 659.0,334.0 665.2,334.0 671.4,334.0 677.6,334.0 683.8,334.0 690.0,334.0 690.0,334.0 690.0,334.0 690.0,334.0 690.0,334.0 690.0,334.0 690.0,334.0 690.0,334.0 690.0,334.0 690.0,334.0 690.0,334.0 690.0,334.0 690.0,334.0 690.0,334.0 690.0,334.0 690.0,334.0 690.0,334.0 690.0,334.0 690.0,334.0 690.0,334.0 690.0,334.0 690.0,334.0 690.0,334.0 690.0,334.0 690.0,334.0 690.0,334.0 690.0,334.0 690.0,334.0 690.0,334.0 690.0,334.0 690.0,334.0 690.0,334.0 690.0,334.0 690.0,334.0 690.0,334.0 690.0,334.0 690.0,334.0 690.0,334.0 690.0,334.0 690.0,334.0 690.0,334.0 690.0,334.0 690.0,334.0 690.0,334.0 690.0,334.0 690.0,334.0 690.0,334.0 690.0,334.0 690.0,334.0 690.0,334.0 690.0,334.0 690.0,334.0 690.0,334.0 690.0,334.0 690.0,334.0 690.0,334.0 690.0,334.0 690.0,334.0 690.0,334.0 690.0,334.0 690.0,334.0 690.0,334.0 690.0,334.0 690.0,334.0 690.0,334.0 690.0,334.0 690.0,334.0 690.0,334.0 690.0,334.0 690.0,334.0 690.0,334.0 690.0,334.0 690.0,334.0 690.0,334.0 690.0,334.0 690.0,334.0 690.0,334.0 690.0,334.0 690.0,334.0 690.0,334.0 690.0,334.0 690.0,334.0 690.0,334.0 690.0,334.0 690.0,334.0 690.0,334.0 690.0,334.0 690.0,334.0 690.0,334.0 690.0,334.0 690.0,334.0 690.0,334.0 690.0,334.0 690.0,334.0 690.0,334.0 690.0,334.0 690.0,334.0 690.0,334.0 690.0,334.0 690.0,334.0 690.0,334.0 690.0,334.0 690.0,334.0 690.0,334.0 690.0,334.0 690.0,334.0 690.0,334.0 690.0,334.0 690.0,334.0 690.0,334.0 690.0,334.0 690.0,334.0 690.0,334.0 690.0,334.0 690.0,334.0 690.0,334.0 690.0,334.0 690.0,334.0 690.0,334.0 690.0,334.0 690.0,334.0 690.0,334.0 690.0,334.0 690.0,334.0 690.0,334.0 690.0,334.0 690.0,334.0 690.0,334.0 690.0,334.0 690.0,334.0 690.0,334.0 690.0,334.0 690.0,334.0 690.0,334.0 690.0,334.0 690.0,334.0 690.0,334.0 690.0,334.0 690.0,334.0 690.0,334.0 690.0,334.0 690.0,334.0 690.0,334.0 690.0,334.0 690.0,334.0 690.0,334.0 690.0,334.0 690.0,334.0 690.0,334.0 690.0,334.0 690.0,334.0 690.0,334.0 690.0,334.0 690.0,334.0 690.0,334.0 690.0,334.0 690.0,334.0 690.0,334.0 690.0,334.0 690.0,334.0 690.0,334.0 690.0,334.0 690.0,334.0 690.0,334.0 690.0,334.0 690.0,334.0 690.0,334.0 690.0,334.0 690.0,334.0 690.0,334.0 690.0,334.0 690.0,334.0 690.0,334.0 690.0,334.0 690.0,334.0 690.0,334.0 690.0,334.0 690.0,334.0 690.0,334.0 690.0,334.0 690.0,334.0 690.0,334.0 690.0,334.0 690.0,334.0 690.0,334.0 690.0,334.0 690.0,334.0 690.0,334.0 690.0,334.0 690.0,334.0 690.0,334.0 690.0,334.0 690.0,334.0 690.0,334.0 690.0,334.0 690.0,334.0 690.0,334.0 690.0,334.0 690.0,334.0 690.0,334.0 690.0,334.0 690.0,334.0 690.0,334.0 690.0,334.0 690.0,334.0 690.0,334.0 690.0,334.0 690.0,334.0 690.0,334.0 690.0,334.0 690.0,334.0 690.0,334.0 690.0,334.0 690.0,334.0 690.0,334.0 690.0,334.0 690.0,334.0 690.0,334.0 690.0,334.0 690.0,334.0 690.0,334.0 690.0,334.0 690.0,334.0 690.0,334.0 690.0,334.0 690.0,334.0 690.0,334.0 690.0,334.0 690.0,334.0 690.0,334.0 690.0,334.0 690.0,334.0 690.0,334.0 690.0,334.0 690.0,334.0 690.0,334.0 690.0,334.0 690.0,334.0 690.0,334.0 690.0,334.0 690.0,334.0 690.0,334.0 690.0,334.0 690.0,334.0 690.0,334.0 690.0,334.0 690.0,334.0 690.0,334.0 690.0,334.0 690.0,334.0 690.0,334.0 690.0,334.0 690.0,334.0 690.0,334.0 690.0,334.0 690.0,334.0 690.0,334.0 690.0,334.0 690.0,334.0 690.0,334.0 690.0,334.0 690.0,334.0 690.0,334.0 690.0,334.0 690.0,334.0 690.0,334.0 690.0,334.0 690.0,334.0 690.0,334.0 690.0,334.0 690.0,334.0 690.0,334.0 690.0,334.0 690.0,334.0 690.0,334.0 690.0,334.0 690.0,334.0 690.0,334.0 690.0,334.0 690.0,334.0 690.0,334.0 690.0,334.0 690.0,334.0 690.0,334.0 690.0,334.0 690.0,334.0 690.0,334.0 690.0,334.0 690.0,334.0 690.0,334.0 690.0,334.0 690.0,334.0 690.0,334.0 690.0,334.0 690.0,334.0 690.0,334.0 690.0,334.0 690.0,334.0 690.0,334.0 690.0,334.0" fill="none" stroke="#b5462d" stroke-width="1.8" stroke-dasharray=""/><rect x="436" y="39" width="250" height="15" fill="#ffffff" opacity="0.8"/><line x1="440" y1="47" x2="462" y2="47" stroke="#3f7d4a" stroke-width="2" stroke-dasharray=""/><text x="468.0" y="50.0" font-size="11" fill="#2a2925" text-anchor="start">preload 0.05 N (loose)</text><rect x="436" y="54" width="250" height="15" fill="#ffffff" opacity="0.8"/><line x1="440" y1="62" x2="462" y2="62" stroke="#1f5f8b" stroke-width="2" stroke-dasharray=""/><text x="468.0" y="65.0" font-size="11" fill="#2a2925" text-anchor="start">preload 0.15 N (default)</text><rect x="436" y="69" width="250" height="15" fill="#ffffff" opacity="0.8"/><line x1="440" y1="77" x2="462" y2="77" stroke="#b5462d" stroke-width="2" stroke-dasharray=""/><text x="468.0" y="80.0" font-size="11" fill="#2a2925" text-anchor="start">preload 1.2 N (tight)</text></svg>