<svg xmlns="http://www.w3.org/2000/svg" viewBox="0 0 960 440" font-family="sans-serif"><rect width="100%" height="100%" fill="#f7f6f2"/><rect x="60" y="40" width="400" height="130" fill="#ffffff" stroke="#c9c4b8"/><line x1="152.3" y1="40" x2="152.3" y2="170" stroke="#ece8de"/><text x="152.3" y="183.0" font-size="10" fill="#55524a" text-anchor="middle">C3</text><line x1="275.4" y1="40" x2="275.4" y2="170" stroke="#ece8de"/><text x="275.4" y="183.0" font-size="10" fill="#55524a" text-anchor="middle">C4</text><line x1="398.5" y1="40" x2="398.5" y2="170" stroke="#ece8de"/><text x="398.5" y="183.0" font-size="10" fill="#55524a" text-anchor="middle">C5</text><line x1="60" y1="153.8" x2="460" y2="153.8" stroke="#ece8de"/><text x="56.0" y="156.8" font-size="10" fill="#55524a" text-anchor="end">-30</text><line x1="60" y1="129.4" x2="460" y2="129.4" stroke="#ece8de"/><text x="56.0" y="132.4" font-size="10" fill="#55524a" text-anchor="end">-15</text><line x1="60" y1="105.0" x2="460" y2="105.0" stroke="#ece8de"/><text x="56.0" y="108.0" font-size="10" fill="#55524a" text-anchor="end">0</text><line x1="60" y1="80.6" x2="460" y2="80.6" stroke="#ece8de"/><text x="56.0" y="83.6" font-size="10" fill="#55524a" text-anchor="end">15</text><line x1="60" y1="56.2" x2="460" y2="56.2" stroke="#ece8de"/><text x="56.0" y="59.2" font-size="10" fill="#55524a" text-anchor="end">30</text><text x="60.0" y="32.0" font-size="13" fill="#2a2925" text-anchor="start" font-weight="bold">Tenor trombone: cents from the note asked</text><text x="260.0" y="198.0" font-size="11" fill="#55524a" text-anchor="middle"></text><text transform="translate(20,105) rotate(-90)" font-size="11" fill="#55524a" text-anchor="middle">cents</text><line x1="60" y1="95.2" x2="460" y2="95.2" stroke="#d9d3c4" stroke-dasharray="3 3"/><line x1="60" y1="114.8" x2="460" y2="114.8" stroke="#d9d3c4" stroke-dasharray="3 3"/><circle cx="70.3" cy="105.1" r="2.6" fill="#1f5f8b"/><circle cx="80.5" cy="105.3" r="2.6" fill="#1f5f8b"/><circle cx="90.8" cy="105.1" r="2.6" fill="#1f5f8b"/><circle cx="101.0" cy="105.0" r="2.6" fill="#1f5f8b"/><circle cx="111.3" cy="105.1" r="2.6" fill="#1f5f8b"/><circle cx="121.5" cy="104.9" r="2.6" fill="#1f5f8b"/><circle cx="131.8" cy="104.9" r="2.6" fill="#1f5f8b"/><circle cx="142.1" cy="101.9" r="2.6" fill="#1f5f8b"/><circle cx="152.3" cy="105.1" r="2.6" fill="#1f5f8b"/><circle cx="162.6" cy="104.8" r="2.6" fill="#1f5f8b"/><circle cx="172.8" cy="105.0" r="2.6" fill="#1f5f8b"/><circle cx="183.1" cy="105.0" r="2.6" fill="#1f5f8b"/><circle cx="193.3" cy="105.0" r="2.6" fill="#1f5f8b"/><circle cx="203.6" cy="105.0" r="2.6" fill="#1f5f8b"/><circle cx="213.8" cy="105.0" r="2.6" fill="#1f5f8b"/><circle cx="224.1" cy="105.1" r="2.6" fill="#1f5f8b"/><circle cx="234.4" cy="105.0" r="2.6" fill="#1f5f8b"/><circle cx="244.6" cy="104.8" r="2.6" fill="#1f5f8b"/><circle cx="254.9" cy="104.8" r="2.6" fill="#1f5f8b"/><circle cx="265.1" cy="105.0" r="2.6" fill="#1f5f8b"/><circle cx="275.4" cy="105.0" r="2.6" fill="#1f5f8b"/><circle cx="285.6" cy="104.8" r="2.6" fill="#1f5f8b"/><circle cx="295.9" cy="105.1" r="2.6" fill="#1f5f8b"/><circle cx="306.2" cy="104.8" r="2.6" fill="#1f5f8b"/><circle cx="316.4" cy="104.7" r="2.6" fill="#1f5f8b"/><circle cx="326.7" cy="105.0" r="2.6" fill="#1f5f8b"/><circle cx="336.9" cy="104.7" r="2.6" fill="#1f5f8b"/><circle cx="347.2" cy="104.7" r="2.6" fill="#1f5f8b"/><circle cx="357.4" cy="41.6" r="2.6" fill="#1f5f8b"/><circle cx="367.7" cy="104.6" r="2.6" fill="#1f5f8b"/><circle cx="377.9" cy="104.7" r="2.6" fill="#1f5f8b"/><circle cx="388.2" cy="104.8" r="2.6" fill="#1f5f8b"/><circle cx="398.5" cy="104.7" r="2.6" fill="#1f5f8b"/><circle cx="408.7" cy="104.8" r="2.6" fill="#1f5f8b"/><circle cx="419.0" cy="103.9" r="2.6" fill="#1f5f8b"/><circle cx="429.2" cy="104.9" r="2.6" fill="#1f5f8b"/><circle cx="439.5" cy="103.9" r="2.6" fill="#1f5f8b"/><circle cx="449.7" cy="116.5" r="2.6" fill="#1f5f8b"/><circle cx="70.3" cy="105.0" r="2.6" fill="#3f7d4a"/><circle cx="80.5" cy="105.1" r="2.6" fill="#3f7d4a"/><circle cx="90.8" cy="105.0" r="2.6" fill="#3f7d4a"/><circle cx="101.0" cy="105.0" r="2.6" fill="#3f7d4a"/><circle cx="111.3" cy="105.0" r="2.6" fill="#3f7d4a"/><circle cx="121.5" cy="105.0" r="2.6" fill="#3f7d4a"/><circle cx="131.8" cy="104.9" r="2.6" fill="#3f7d4a"/><circle cx="142.1" cy="110.7" r="2.6" fill="#3f7d4a"/><circle cx="152.3" cy="105.1" r="2.6" fill="#3f7d4a"/><circle cx="162.6" cy="104.9" r="2.6" fill="#3f7d4a"/><circle cx="172.8" cy="105.0" r="2.6" fill="#3f7d4a"/><circle cx="183.1" cy="104.9" r="2.6" fill="#3f7d4a"/><circle cx="193.3" cy="105.0" r="2.6" fill="#3f7d4a"/><circle cx="203.6" cy="104.9" r="2.6" fill="#3f7d4a"/><circle cx="213.8" cy="104.6" r="2.6" fill="#3f7d4a"/><circle cx="224.1" cy="104.8" r="2.6" fill="#3f7d4a"/><circle cx="234.4" cy="104.9" r="2.6" fill="#3f7d4a"/><circle cx="244.6" cy="104.9" r="2.6" fill="#3f7d4a"/><circle cx="254.9" cy="104.8" r="2.6" fill="#3f7d4a"/><circle cx="265.1" cy="105.1" r="2.6" fill="#3f7d4a"/><circle cx="275.4" cy="105.2" r="2.6" fill="#3f7d4a"/><circle cx="285.6" cy="104.9" r="2.6" fill="#3f7d4a"/><circle cx="295.9" cy="104.7" r="2.6" fill="#3f7d4a"/><circle cx="306.2" cy="104.5" r="2.6" fill="#3f7d4a"/><circle cx="316.4" cy="104.8" r="2.6" fill="#3f7d4a"/><circle cx="326.7" cy="104.5" r="2.6" fill="#3f7d4a"/><circle cx="336.9" cy="104.5" r="2.6" fill="#3f7d4a"/><circle cx="347.2" cy="104.4" r="2.6" fill="#3f7d4a"/><circle cx="357.4" cy="94.1" r="2.6" fill="#3f7d4a"/><circle cx="367.7" cy="105.1" r="2.6" fill="#3f7d4a"/><circle cx="377.9" cy="105.0" r="2.6" fill="#3f7d4a"/><circle cx="388.2" cy="104.7" r="2.6" fill="#3f7d4a"/><circle cx="398.5" cy="105.0" r="2.6" fill="#3f7d4a"/><circle cx="408.7" cy="104.3" r="2.6" fill="#3f7d4a"/><circle cx="419.0" cy="104.8" r="2.6" fill="#3f7d4a"/><circle cx="429.2" cy="104.8" r="2.6" fill="#3f7d4a"/><circle cx="439.5" cy="168.4" r="2.6" fill="#3f7d4a"/><circle cx="449.7" cy="98.9" r="2.6" fill="#3f7d4a"/><circle cx="70.3" cy="101.6" r="2.6" fill="#b5462d"/><circle cx="80.5" cy="104.9" r="2.6" fill="#b5462d"/><circle cx="90.8" cy="105.0" r="2.6" fill="#b5462d"/><circle cx="101.0" cy="105.1" r="2.6" fill="#b5462d"/><circle cx="111.3" cy="105.0" r="2.6" fill="#b5462d"/><circle cx="121.5" cy="105.0" r="2.6" fill="#b5462d"/><circle cx="131.8" cy="105.0" r="2.6" fill="#b5462d"/><circle cx="142.1" cy="100.1" r="2.6" fill="#b5462d"/><circle cx="152.3" cy="105.1" r="2.6" fill="#b5462d"/><circle cx="162.6" cy="104.8" r="2.6" fill="#b5462d"/><circle cx="172.8" cy="104.9" r="2.6" fill="#b5462d"/><circle cx="183.1" cy="105.0" r="2.6" fill="#b5462d"/><circle cx="193.3" cy="105.0" r="2.6" fill="#b5462d"/><circle cx="203.6" cy="105.2" r="2.6" fill="#b5462d"/><circle cx="213.8" cy="107.8" r="2.6" fill="#b5462d"/><circle cx="224.1" cy="104.8" r="2.6" fill="#b5462d"/><circle cx="234.4" cy="104.9" r="2.6" fill="#b5462d"/><circle cx="244.6" cy="105.0" r="2.6" fill="#b5462d"/><circle cx="254.9" cy="105.2" r="2.6" fill="#b5462d"/><circle cx="265.1" cy="104.8" r="2.6" fill="#b5462d"/><circle cx="275.4" cy="104.9" r="2.6" fill="#b5462d"/><circle cx="285.6" cy="105.0" r="2.6" fill="#b5462d"/><circle cx="295.9" cy="105.0" r="2.6" fill="#b5462d"/><circle cx="306.2" cy="105.1" r="2.6" fill="#b5462d"/><circle cx="316.4" cy="105.0" r="2.6" fill="#b5462d"/><circle cx="326.7" cy="104.5" r="2.6" fill="#b5462d"/><circle cx="336.9" cy="104.3" r="2.6" fill="#b5462d"/><circle cx="347.2" cy="104.8" r="2.6" fill="#b5462d"/><circle cx="357.4" cy="104.4" r="2.6" fill="#b5462d"/><circle cx="367.7" cy="104.8" r="2.6" fill="#b5462d"/><circle cx="377.9" cy="105.1" r="2.6" fill="#b5462d"/><circle cx="388.2" cy="104.3" r="2.6" fill="#b5462d"/><circle cx="398.5" cy="104.5" r="2.6" fill="#b5462d"/><circle cx="408.7" cy="105.4" r="2.6" fill="#b5462d"/><circle cx="419.0" cy="104.8" r="2.6" fill="#b5462d"/><circle cx="429.2" cy="105.3" r="2.6" fill="#b5462d"/><circle cx="439.5" cy="126.7" r="2.6" fill="#b5462d"/><circle cx="449.7" cy="105.3" r="2.6" fill="#b5462d"/><rect x="530" y="40" width="400" height="130" fill="#ffffff" stroke="#c9c4b8"/><line x1="635.9" y1="40" x2="635.9" y2="170" stroke="#ece8de"/><text x="635.9" y="183.0" font-size="10" fill="#55524a" text-anchor="middle">C4</text><line x1="777.1" y1="40" x2="777.1" y2="170" stroke="#ece8de"/><text x="777.1" y="183.0" font-size="10" fill="#55524a" text-anchor="middle">C5</text><line x1="918.2" y1="40" x2="918.2" y2="170" stroke="#ece8de"/><text x="918.2" y="183.0" font-size="10" fill="#55524a" text-anchor="middle">C6</text><line x1="530" y1="153.8" x2="930" y2="153.8" stroke="#ece8de"/><text x="526.0" y="156.8" font-size="10" fill="#55524a" text-anchor="end">-30</text><line x1="530" y1="129.4" x2="930" y2="129.4" stroke="#ece8de"/><text x="526.0" y="132.4" font-size="10" fill="#55524a" text-anchor="end">-15</text><line x1="530" y1="105.0" x2="930" y2="105.0" stroke="#ece8de"/><text x="526.0" y="108.0" font-size="10" fill="#55524a" text-anchor="end">0</text><line x1="530" y1="80.6" x2="930" y2="80.6" stroke="#ece8de"/><text x="526.0" y="83.6" font-size="10" fill="#55524a" text-anchor="end">15</text><line x1="530" y1="56.2" x2="930" y2="56.2" stroke="#ece8de"/><text x="526.0" y="59.2" font-size="10" fill="#55524a" text-anchor="end">30</text><text x="530.0" y="32.0" font-size="13" fill="#2a2925" text-anchor="start" font-weight="bold">B-flat trumpet: cents from the note asked</text><text x="730.0" y="198.0" font-size="11" fill="#55524a" text-anchor="middle"></text><text transform="translate(490,105) rotate(-90)" font-size="11" fill="#55524a" text-anchor="middle">cents</text><line x1="530" y1="95.2" x2="930" y2="95.2" stroke="#d9d3c4" stroke-dasharray="3 3"/><line x1="530" y1="114.8" x2="930" y2="114.8" stroke="#d9d3c4" stroke-dasharray="3 3"/><circle cx="541.8" cy="105.2" r="2.6" fill="#1f5f8b"/><circle cx="553.5" cy="105.0" r="2.6" fill="#1f5f8b"/><circle cx="565.3" cy="105.2" r="2.6" fill="#1f5f8b"/><circle cx="577.1" cy="104.9" r="2.6" fill="#1f5f8b"/><circle cx="588.8" cy="104.9" r="2.6" fill="#1f5f8b"/><circle cx="600.6" cy="105.1" r="2.6" fill="#1f5f8b"/><circle cx="612.4" cy="105.2" r="2.6" fill="#1f5f8b"/><circle cx="624.1" cy="49.7" r="2.6" fill="#1f5f8b"/><circle cx="635.9" cy="104.8" r="2.6" fill="#1f5f8b"/><circle cx="647.6" cy="104.8" r="2.6" fill="#1f5f8b"/><circle cx="659.4" cy="105.0" r="2.6" fill="#1f5f8b"/><circle cx="671.2" cy="105.0" r="2.6" fill="#1f5f8b"/><circle cx="682.9" cy="104.5" r="2.6" fill="#1f5f8b"/><circle cx="694.7" cy="104.7" r="2.6" fill="#1f5f8b"/><circle cx="706.5" cy="104.2" r="2.6" fill="#1f5f8b"/><circle cx="718.2" cy="104.8" r="2.6" fill="#1f5f8b"/><circle cx="730.0" cy="104.6" r="2.6" fill="#1f5f8b"/><circle cx="741.8" cy="104.9" r="2.6" fill="#1f5f8b"/><circle cx="753.5" cy="104.8" r="2.6" fill="#1f5f8b"/><circle cx="765.3" cy="42.7" r="2.6" fill="#1f5f8b"/><circle cx="777.1" cy="103.2" r="2.6" fill="#1f5f8b"/><circle cx="788.8" cy="104.5" r="2.6" fill="#1f5f8b"/><circle cx="800.6" cy="104.7" r="2.6" fill="#1f5f8b"/><circle cx="812.4" cy="104.7" r="2.6" fill="#1f5f8b"/><circle cx="824.1" cy="104.2" r="2.6" fill="#1f5f8b"/><circle cx="835.9" cy="104.8" r="2.6" fill="#1f5f8b"/><circle cx="847.6" cy="104.4" r="2.6" fill="#1f5f8b"/><circle cx="859.4" cy="104.5" r="2.6" fill="#1f5f8b"/><circle cx="871.2" cy="104.8" r="2.6" fill="#1f5f8b"/><circle cx="882.9" cy="104.3" r="2.6" fill="#1f5f8b"/><circle cx="894.7" cy="105.0" r="2.6" fill="#1f5f8b"/><circle cx="906.5" cy="105.7" r="2.6" fill="#1f5f8b"/><circle cx="918.2" cy="105.8" r="2.6" fill="#1f5f8b"/><circle cx="541.8" cy="105.3" r="2.6" fill="#3f7d4a"/><circle cx="553.5" cy="105.0" r="2.6" fill="#3f7d4a"/><circle cx="565.3" cy="104.8" r="2.6" fill="#3f7d4a"/><circle cx="577.1" cy="104.8" r="2.6" fill="#3f7d4a"/><circle cx="588.8" cy="105.1" r="2.6" fill="#3f7d4a"/><circle cx="600.6" cy="104.7" r="2.6" fill="#3f7d4a"/><circle cx="612.4" cy="105.0" r="2.6" fill="#3f7d4a"/><circle cx="624.1" cy="53.5" r="2.6" fill="#3f7d4a"/><circle cx="635.9" cy="104.8" r="2.6" fill="#3f7d4a"/><circle cx="647.6" cy="105.0" r="2.6" fill="#3f7d4a"/><circle cx="659.4" cy="104.9" r="2.6" fill="#3f7d4a"/><circle cx="671.2" cy="105.0" r="2.6" fill="#3f7d4a"/><circle cx="682.9" cy="104.5" r="2.6" fill="#3f7d4a"/><circle cx="694.7" cy="104.6" r="2.6" fill="#3f7d4a"/><circle cx="706.5" cy="104.6" r="2.6" fill="#3f7d4a"/><circle cx="718.2" cy="104.6" r="2.6" fill="#3f7d4a"/><circle cx="730.0" cy="104.9" r="2.6" fill="#3f7d4a"/><circle cx="741.8" cy="105.0" r="2.6" fill="#3f7d4a"/><circle cx="753.5" cy="104.9" r="2.6" fill="#3f7d4a"/><circle cx="765.3" cy="168.4" r="2.6" fill="#3f7d4a"/><circle cx="777.1" cy="104.7" r="2.6" fill="#3f7d4a"/><circle cx="788.8" cy="104.5" r="2.6" fill="#3f7d4a"/><circle cx="800.6" cy="104.5" r="2.6" fill="#3f7d4a"/><circle cx="812.4" cy="104.9" r="2.6" fill="#3f7d4a"/><circle cx="824.1" cy="104.9" r="2.6" fill="#3f7d4a"/><circle cx="835.9" cy="104.5" r="2.6" fill="#3f7d4a"/><circle cx="847.6" cy="104.7" r="2.6" fill="#3f7d4a"/><circle cx="859.4" cy="105.1" r="2.6" fill="#3f7d4a"/><circle cx="871.2" cy="104.7" r="2.6" fill="#3f7d4a"/><circle cx="882.9" cy="104.1" r="2.6" fill="#3f7d4a"/><circle cx="894.7" cy="104.9" r="2.6" fill="#3f7d4a"/><circle cx="906.5" cy="106.5" r="2.6" fill="#3f7d4a"/><circle cx="918.2" cy="105.2" r="2.6" fill="#3f7d4a"/><circle cx="541.8" cy="105.2" r="2.6" fill="#b5462d"/><circle cx="553.5" cy="104.9" r="2.6" fill="#b5462d"/><circle cx="565.3" cy="104.9" r="2.6" fill="#b5462d"/><circle cx="577.1" cy="105.0" r="2.6" fill="#b5462d"/><circle cx="588.8" cy="104.7" r="2.6" fill="#b5462d"/><circle cx="600.6" cy="104.9" r="2.6" fill="#b5462d"/><circle cx="612.4" cy="104.9" r="2.6" fill="#b5462d"/><circle cx="624.1" cy="41.6" r="2.6" fill="#b5462d"/><circle cx="635.9" cy="105.0" r="2.6" fill="#b5462d"/><circle cx="647.6" cy="104.6" r="2.6" fill="#b5462d"/><circle cx="659.4" cy="104.8" r="2.6" fill="#b5462d"/><circle cx="671.2" cy="105.3" r="2.6" fill="#b5462d"/><circle cx="682.9" cy="105.2" r="2.6" fill="#b5462d"/><circle cx="694.7" cy="104.5" r="2.6" fill="#b5462d"/><circle cx="706.5" cy="104.7" r="2.6" fill="#b5462d"/><circle cx="718.2" cy="105.1" r="2.6" fill="#b5462d"/><circle cx="730.0" cy="104.6" r="2.6" fill="#b5462d"/><circle cx="741.8" cy="104.7" r="2.6" fill="#b5462d"/><circle cx="753.5" cy="105.3" r="2.6" fill="#b5462d"/><circle cx="765.3" cy="41.6" r="2.6" fill="#b5462d"/><circle cx="777.1" cy="104.5" r="2.6" fill="#b5462d"/><circle cx="788.8" cy="105.5" r="2.6" fill="#b5462d"/><circle cx="800.6" cy="104.8" r="2.6" fill="#b5462d"/><circle cx="812.4" cy="105.7" r="2.6" fill="#b5462d"/><circle cx="824.1" cy="105.8" r="2.6" fill="#b5462d"/><circle cx="835.9" cy="104.4" r="2.6" fill="#b5462d"/><circle cx="847.6" cy="107.2" r="2.6" fill="#b5462d"/><circle cx="859.4" cy="104.5" r="2.6" fill="#b5462d"/><circle cx="871.2" cy="104.5" r="2.6" fill="#b5462d"/><circle cx="882.9" cy="106.1" r="2.6" fill="#b5462d"/><circle cx="894.7" cy="104.6" r="2.6" fill="#b5462d"/><circle cx="906.5" cy="106.8" r="2.6" fill="#b5462d"/><circle cx="918.2" cy="106.1" r="2.6" fill="#b5462d"/><rect x="60" y="230" width="400" height="130" fill="#ffffff" stroke="#c9c4b8"/><line x1="144.2" y1="230" x2="144.2" y2="360" stroke="#ece8de"/><text x="144.2" y="373.0" font-size="10" fill="#55524a" text-anchor="middle">C3</text><line x1="270.5" y1="230" x2="270.5" y2="360" stroke="#ece8de"/><text x="270.5" y="373.0" font-size="10" fill="#55524a" text-anchor="middle">C4</text><line x1="396.8" y1="230" x2="396.8" y2="360" stroke="#ece8de"/><text x="396.8" y="373.0" font-size="10" fill="#55524a" text-anchor="middle">C5</text><line x1="60" y1="343.8" x2="460" y2="343.8" stroke="#ece8de"/><text x="56.0" y="346.8" font-size="10" fill="#55524a" text-anchor="end">-30</text><line x1="60" y1="319.4" x2="460" y2="319.4" stroke="#ece8de"/><text x="56.0" y="322.4" font-size="10" fill="#55524a" text-anchor="end">-15</text><line x1="60" y1="295.0" x2="460" y2="295.0" stroke="#ece8de"/><text x="56.0" y="298.0" font-size="10" fill="#55524a" text-anchor="end">0</text><line x1="60" y1="270.6" x2="460" y2="270.6" stroke="#ece8de"/><text x="56.0" y="273.6" font-size="10" fill="#55524a" text-anchor="end">15</text><line x1="60" y1="246.2" x2="460" y2="246.2" stroke="#ece8de"/><text x="56.0" y="249.2" font-size="10" fill="#55524a" text-anchor="end">30</text><text x="60.0" y="222.0" font-size="13" fill="#2a2925" text-anchor="start" font-weight="bold">Double horn (B-flat side): cents from the note asked</text><text x="260.0" y="388.0" font-size="11" fill="#55524a" text-anchor="middle"></text><text transform="translate(20,295) rotate(-90)" font-size="11" fill="#55524a" text-anchor="middle">cents</text><line x1="60" y1="285.2" x2="460" y2="285.2" stroke="#d9d3c4" stroke-dasharray="3 3"/><line x1="60" y1="304.8" x2="460" y2="304.8" stroke="#d9d3c4" stroke-dasharray="3 3"/><circle cx="70.5" cy="295.6" r="2.6" fill="#1f5f8b"/><circle cx="81.1" cy="231.6" r="2.6" fill="#1f5f8b"/><circle cx="91.6" cy="290.5" r="2.6" fill="#1f5f8b"/><circle cx="102.1" cy="295.9" r="2.6" fill="#1f5f8b"/><circle cx="112.6" cy="294.9" r="2.6" fill="#1f5f8b"/><circle cx="123.2" cy="295.0" r="2.6" fill="#1f5f8b"/><circle cx="133.7" cy="294.9" r="2.6" fill="#1f5f8b"/><circle cx="144.2" cy="295.1" r="2.6" fill="#1f5f8b"/><circle cx="154.7" cy="297.4" r="2.6" fill="#1f5f8b"/><circle cx="165.3" cy="294.9" r="2.6" fill="#1f5f8b"/><circle cx="175.8" cy="294.9" r="2.6" fill="#1f5f8b"/><circle cx="186.3" cy="294.9" r="2.6" fill="#1f5f8b"/><circle cx="196.8" cy="295.0" r="2.6" fill="#1f5f8b"/><circle cx="207.4" cy="358.4" r="2.6" fill="#1f5f8b"/><circle cx="217.9" cy="293.4" r="2.6" fill="#1f5f8b"/><circle cx="228.4" cy="294.5" r="2.6" fill="#1f5f8b"/><circle cx="238.9" cy="294.9" r="2.6" fill="#1f5f8b"/><circle cx="249.5" cy="294.8" r="2.6" fill="#1f5f8b"/><circle cx="260.0" cy="295.0" r="2.6" fill="#1f5f8b"/><circle cx="270.5" cy="295.1" r="2.6" fill="#1f5f8b"/><circle cx="281.1" cy="293.3" r="2.6" fill="#1f5f8b"/><circle cx="291.6" cy="294.7" r="2.6" fill="#1f5f8b"/><circle cx="302.1" cy="294.5" r="2.6" fill="#1f5f8b"/><circle cx="312.6" cy="295.0" r="2.6" fill="#1f5f8b"/><circle cx="323.2" cy="287.6" r="2.6" fill="#1f5f8b"/><circle cx="333.7" cy="295.0" r="2.6" fill="#1f5f8b"/><circle cx="344.2" cy="295.0" r="2.6" fill="#1f5f8b"/><circle cx="354.7" cy="294.9" r="2.6" fill="#1f5f8b"/><circle cx="365.3" cy="294.8" r="2.6" fill="#1f5f8b"/><circle cx="375.8" cy="294.3" r="2.6" fill="#1f5f8b"/><circle cx="386.3" cy="294.8" r="2.6" fill="#1f5f8b"/><circle cx="396.8" cy="295.3" r="2.6" fill="#1f5f8b"/><circle cx="407.4" cy="295.1" r="2.6" fill="#1f5f8b"/><circle cx="417.9" cy="295.0" r="2.6" fill="#1f5f8b"/><circle cx="428.4" cy="295.2" r="2.6" fill="#1f5f8b"/><circle cx="438.9" cy="295.6" r="2.6" fill="#1f5f8b"/><circle cx="449.5" cy="295.4" r="2.6" fill="#1f5f8b"/><circle cx="70.5" cy="294.8" r="2.6" fill="#3f7d4a"/><circle cx="81.1" cy="231.6" r="2.6" fill="#3f7d4a"/><circle cx="91.6" cy="264.5" r="2.6" fill="#3f7d4a"/><circle cx="102.1" cy="296.0" r="2.6" fill="#3f7d4a"/><circle cx="112.6" cy="295.0" r="2.6" fill="#3f7d4a"/><circle cx="123.2" cy="295.1" r="2.6" fill="#3f7d4a"/><circle cx="133.7" cy="295.0" r="2.6" fill="#3f7d4a"/><circle cx="144.2" cy="295.1" r="2.6" fill="#3f7d4a"/><circle cx="154.7" cy="297.3" r="2.6" fill="#3f7d4a"/><circle cx="165.3" cy="294.9" r="2.6" fill="#3f7d4a"/><circle cx="175.8" cy="295.0" r="2.6" fill="#3f7d4a"/><circle cx="186.3" cy="294.9" r="2.6" fill="#3f7d4a"/><circle cx="196.8" cy="295.0" r="2.6" fill="#3f7d4a"/><circle cx="207.4" cy="358.4" r="2.6" fill="#3f7d4a"/><circle cx="217.9" cy="286.4" r="2.6" fill="#3f7d4a"/><circle cx="228.4" cy="281.9" r="2.6" fill="#3f7d4a"/><circle cx="238.9" cy="294.9" r="2.6" fill="#3f7d4a"/><circle cx="249.5" cy="295.0" r="2.6" fill="#3f7d4a"/><circle cx="260.0" cy="295.2" r="2.6" fill="#3f7d4a"/><circle cx="270.5" cy="294.8" r="2.6" fill="#3f7d4a"/><circle cx="281.1" cy="293.7" r="2.6" fill="#3f7d4a"/><circle cx="291.6" cy="294.8" r="2.6" fill="#3f7d4a"/><circle cx="302.1" cy="295.1" r="2.6" fill="#3f7d4a"/><circle cx="312.6" cy="294.9" r="2.6" fill="#3f7d4a"/><circle cx="323.2" cy="269.8" r="2.6" fill="#3f7d4a"/><circle cx="333.7" cy="295.1" r="2.6" fill="#3f7d4a"/><circle cx="344.2" cy="294.9" r="2.6" fill="#3f7d4a"/><circle cx="354.7" cy="295.1" r="2.6" fill="#3f7d4a"/><circle cx="365.3" cy="294.9" r="2.6" fill="#3f7d4a"/><circle cx="375.8" cy="294.8" r="2.6" fill="#3f7d4a"/><circle cx="386.3" cy="294.9" r="2.6" fill="#3f7d4a"/><circle cx="396.8" cy="295.1" r="2.6" fill="#3f7d4a"/><circle cx="407.4" cy="295.1" r="2.6" fill="#3f7d4a"/><circle cx="417.9" cy="295.2" r="2.6" fill="#3f7d4a"/><circle cx="428.4" cy="295.5" r="2.6" fill="#3f7d4a"/><circle cx="438.9" cy="295.9" r="2.6" fill="#3f7d4a"/><circle cx="449.5" cy="295.7" r="2.6" fill="#3f7d4a"/><circle cx="70.5" cy="231.6" r="2.6" fill="#b5462d"/><circle cx="81.1" cy="231.6" r="2.6" fill="#b5462d"/><circle cx="91.6" cy="238.0" r="2.6" fill="#b5462d"/><circle cx="102.1" cy="265.5" r="2.6" fill="#b5462d"/><circle cx="112.6" cy="295.0" r="2.6" fill="#b5462d"/><circle cx="123.2" cy="294.9" r="2.6" fill="#b5462d"/><circle cx="133.7" cy="295.0" r="2.6" fill="#b5462d"/><circle cx="144.2" cy="295.0" r="2.6" fill="#b5462d"/><circle cx="154.7" cy="301.9" r="2.6" fill="#b5462d"/><circle cx="165.3" cy="294.9" r="2.6" fill="#b5462d"/><circle cx="175.8" cy="295.1" r="2.6" fill="#b5462d"/><circle cx="186.3" cy="295.0" r="2.6" fill="#b5462d"/><circle cx="196.8" cy="295.1" r="2.6" fill="#b5462d"/><circle cx="207.4" cy="231.6" r="2.6" fill="#b5462d"/><circle cx="217.9" cy="270.9" r="2.6" fill="#b5462d"/><circle cx="228.4" cy="294.6" r="2.6" fill="#b5462d"/><circle cx="238.9" cy="295.0" r="2.6" fill="#b5462d"/><circle cx="249.5" cy="295.0" r="2.6" fill="#b5462d"/><circle cx="260.0" cy="295.0" r="2.6" fill="#b5462d"/><circle cx="270.5" cy="295.1" r="2.6" fill="#b5462d"/><circle cx="281.1" cy="300.4" r="2.6" fill="#b5462d"/><circle cx="291.6" cy="294.7" r="2.6" fill="#b5462d"/><circle cx="302.1" cy="295.1" r="2.6" fill="#b5462d"/><circle cx="312.6" cy="295.3" r="2.6" fill="#b5462d"/><circle cx="323.2" cy="294.8" r="2.6" fill="#b5462d"/><circle cx="333.7" cy="294.9" r="2.6" fill="#b5462d"/><circle cx="344.2" cy="295.0" r="2.6" fill="#b5462d"/><circle cx="354.7" cy="295.0" r="2.6" fill="#b5462d"/><circle cx="365.3" cy="295.1" r="2.6" fill="#b5462d"/><circle cx="375.8" cy="294.7" r="2.6" fill="#b5462d"/><circle cx="386.3" cy="294.7" r="2.6" fill="#b5462d"/><circle cx="396.8" cy="295.2" r="2.6" fill="#b5462d"/><circle cx="407.4" cy="295.4" r="2.6" fill="#b5462d"/><circle cx="417.9" cy="294.7" r="2.6" fill="#b5462d"/><circle cx="428.4" cy="295.7" r="2.6" fill="#b5462d"/><circle cx="438.9" cy="296.2" r="2.6" fill="#b5462d"/><circle cx="449.5" cy="295.8" r="2.6" fill="#b5462d"/><rect x="530" y="230" width="400" height="130" fill="#ffffff" stroke="#c9c4b8"/><line x1="635.9" y1="230" x2="635.9" y2="360" stroke="#ece8de"/><text x="635.9" y="373.0" font-size="10" fill="#55524a" text-anchor="middle">C2</text><line x1="777.1" y1="230" x2="777.1" y2="360" stroke="#ece8de"/><text x="777.1" y="373.0" font-size="10" fill="#55524a" text-anchor="middle">C3</text><line x1="918.2" y1="230" x2="918.2" y2="360" stroke="#ece8de"/><text x="918.2" y="373.0" font-size="10" fill="#55524a" text-anchor="middle">C4</text><line x1="530" y1="343.8" x2="930" y2="343.8" stroke="#ece8de"/><text x="526.0" y="346.8" font-size="10" fill="#55524a" text-anchor="end">-30</text><line x1="530" y1="319.4" x2="930" y2="319.4" stroke="#ece8de"/><text x="526.0" y="322.4" font-size="10" fill="#55524a" text-anchor="end">-15</text><line x1="530" y1="295.0" x2="930" y2="295.0" stroke="#ece8de"/><text x="526.0" y="298.0" font-size="10" fill="#55524a" text-anchor="end">0</text><line x1="530" y1="270.6" x2="930" y2="270.6" stroke="#ece8de"/><text x="526.0" y="273.6" font-size="10" fill="#55524a" text-anchor="end">15</text><line x1="530" y1="246.2" x2="930" y2="246.2" stroke="#ece8de"/><text x="526.0" y="249.2" font-size="10" fill="#55524a" text-anchor="end">30</text><text x="530.0" y="222.0" font-size="13" fill="#2a2925" text-anchor="start" font-weight="bold">F tuba: cents from the note asked</text><text x="730.0" y="388.0" font-size="11" fill="#55524a" text-anchor="middle"></text><text transform="translate(490,295) rotate(-90)" font-size="11" fill="#55524a" text-anchor="middle">cents</text><line x1="530" y1="285.2" x2="930" y2="285.2" stroke="#d9d3c4" stroke-dasharray="3 3"/><line x1="530" y1="304.8" x2="930" y2="304.8" stroke="#d9d3c4" stroke-dasharray="3 3"/><circle cx="541.8" cy="295.2" r="2.6" fill="#1f5f8b"/><circle cx="553.5" cy="295.3" r="2.6" fill="#1f5f8b"/><circle cx="565.3" cy="296.8" r="2.6" fill="#1f5f8b"/><circle cx="577.1" cy="295.1" r="2.6" fill="#1f5f8b"/><circle cx="588.8" cy="295.5" r="2.6" fill="#1f5f8b"/><circle cx="600.6" cy="295.1" r="2.6" fill="#1f5f8b"/><circle cx="612.4" cy="295.0" r="2.6" fill="#1f5f8b"/><circle cx="624.1" cy="295.1" r="2.6" fill="#1f5f8b"/><circle cx="635.9" cy="295.1" r="2.6" fill="#1f5f8b"/><circle cx="647.6" cy="295.0" r="2.6" fill="#1f5f8b"/><circle cx="659.4" cy="295.0" r="2.6" fill="#1f5f8b"/><circle cx="671.2" cy="295.0" r="2.6" fill="#1f5f8b"/><circle cx="682.9" cy="295.0" r="2.6" fill="#1f5f8b"/><circle cx="694.7" cy="294.9" r="2.6" fill="#1f5f8b"/><circle cx="706.5" cy="294.9" r="2.6" fill="#1f5f8b"/><circle cx="718.2" cy="294.9" r="2.6" fill="#1f5f8b"/><circle cx="730.0" cy="294.9" r="2.6" fill="#1f5f8b"/><circle cx="741.8" cy="295.0" r="2.6" fill="#1f5f8b"/><circle cx="753.5" cy="295.2" r="2.6" fill="#1f5f8b"/><circle cx="765.3" cy="295.0" r="2.6" fill="#1f5f8b"/><circle cx="777.1" cy="294.5" r="2.6" fill="#1f5f8b"/><circle cx="788.8" cy="294.8" r="2.6" fill="#1f5f8b"/><circle cx="800.6" cy="294.6" r="2.6" fill="#1f5f8b"/><circle cx="812.4" cy="294.9" r="2.6" fill="#1f5f8b"/><circle cx="824.1" cy="295.1" r="2.6" fill="#1f5f8b"/><circle cx="835.9" cy="294.9" r="2.6" fill="#1f5f8b"/><circle cx="847.6" cy="294.2" r="2.6" fill="#1f5f8b"/><circle cx="859.4" cy="294.9" r="2.6" fill="#1f5f8b"/><circle cx="871.2" cy="295.1" r="2.6" fill="#1f5f8b"/><circle cx="882.9" cy="294.9" r="2.6" fill="#1f5f8b"/><circle cx="894.7" cy="294.5" r="2.6" fill="#1f5f8b"/><circle cx="906.5" cy="294.8" r="2.6" fill="#1f5f8b"/><circle cx="918.2" cy="259.7" r="2.6" fill="#1f5f8b"/><circle cx="541.8" cy="294.9" r="2.6" fill="#3f7d4a"/><circle cx="553.5" cy="295.2" r="2.6" fill="#3f7d4a"/><circle cx="565.3" cy="295.7" r="2.6" fill="#3f7d4a"/><circle cx="577.1" cy="295.7" r="2.6" fill="#3f7d4a"/><circle cx="588.8" cy="295.8" r="2.6" fill="#3f7d4a"/><circle cx="600.6" cy="295.0" r="2.6" fill="#3f7d4a"/><circle cx="612.4" cy="295.0" r="2.6" fill="#3f7d4a"/><circle cx="624.1" cy="295.0" r="2.6" fill="#3f7d4a"/><circle cx="635.9" cy="295.0" r="2.6" fill="#3f7d4a"/><circle cx="647.6" cy="295.0" r="2.6" fill="#3f7d4a"/><circle cx="659.4" cy="295.0" r="2.6" fill="#3f7d4a"/><circle cx="671.2" cy="294.9" r="2.6" fill="#3f7d4a"/><circle cx="682.9" cy="294.9" r="2.6" fill="#3f7d4a"/><circle cx="694.7" cy="294.7" r="2.6" fill="#3f7d4a"/><circle cx="706.5" cy="294.9" r="2.6" fill="#3f7d4a"/><circle cx="718.2" cy="295.0" r="2.6" fill="#3f7d4a"/><circle cx="730.0" cy="295.0" r="2.6" fill="#3f7d4a"/><circle cx="741.8" cy="295.0" r="2.6" fill="#3f7d4a"/><circle cx="753.5" cy="294.7" r="2.6" fill="#3f7d4a"/><circle cx="765.3" cy="295.0" r="2.6" fill="#3f7d4a"/><circle cx="777.1" cy="293.9" r="2.6" fill="#3f7d4a"/><circle cx="788.8" cy="295.0" r="2.6" fill="#3f7d4a"/><circle cx="800.6" cy="294.6" r="2.6" fill="#3f7d4a"/><circle cx="812.4" cy="295.1" r="2.6" fill="#3f7d4a"/><circle cx="824.1" cy="295.0" r="2.6" fill="#3f7d4a"/><circle cx="835.9" cy="294.7" r="2.6" fill="#3f7d4a"/><circle cx="847.6" cy="294.6" r="2.6" fill="#3f7d4a"/><circle cx="859.4" cy="294.9" r="2.6" fill="#3f7d4a"/><circle cx="871.2" cy="295.1" r="2.6" fill="#3f7d4a"/><circle cx="882.9" cy="294.7" r="2.6" fill="#3f7d4a"/><circle cx="894.7" cy="294.7" r="2.6" fill="#3f7d4a"/><circle cx="906.5" cy="294.9" r="2.6" fill="#3f7d4a"/><circle cx="918.2" cy="294.5" r="2.6" fill="#3f7d4a"/><circle cx="541.8" cy="294.9" r="2.6" fill="#b5462d"/><circle cx="553.5" cy="295.0" r="2.6" fill="#b5462d"/><circle cx="565.3" cy="295.0" r="2.6" fill="#b5462d"/><circle cx="577.1" cy="295.0" r="2.6" fill="#b5462d"/><circle cx="588.8" cy="295.0" r="2.6" fill="#b5462d"/><circle cx="600.6" cy="295.0" r="2.6" fill="#b5462d"/><circle cx="612.4" cy="302.6" r="2.6" fill="#b5462d"/><circle cx="624.1" cy="296.0" r="2.6" fill="#b5462d"/><circle cx="635.9" cy="295.0" r="2.6" fill="#b5462d"/><circle cx="647.6" cy="295.0" r="2.6" fill="#b5462d"/><circle cx="659.4" cy="294.9" r="2.6" fill="#b5462d"/><circle cx="671.2" cy="294.9" r="2.6" fill="#b5462d"/><circle cx="682.9" cy="295.0" r="2.6" fill="#b5462d"/><circle cx="694.7" cy="294.9" r="2.6" fill="#b5462d"/><circle cx="706.5" cy="295.0" r="2.6" fill="#b5462d"/><circle cx="718.2" cy="294.9" r="2.6" fill="#b5462d"/><circle cx="730.0" cy="295.0" r="2.6" fill="#b5462d"/><circle cx="741.8" cy="295.0" r="2.6" fill="#b5462d"/><circle cx="753.5" cy="294.6" r="2.6" fill="#b5462d"/><circle cx="765.3" cy="295.0" r="2.6" fill="#b5462d"/><circle cx="777.1" cy="295.0" r="2.6" fill="#b5462d"/><circle cx="788.8" cy="294.9" r="2.6" fill="#b5462d"/><circle cx="800.6" cy="294.9" r="2.6" fill="#b5462d"/><circle cx="812.4" cy="294.8" r="2.6" fill="#b5462d"/><circle cx="824.1" cy="294.7" r="2.6" fill="#b5462d"/><circle cx="835.9" cy="295.0" r="2.6" fill="#b5462d"/><circle cx="847.6" cy="294.7" r="2.6" fill="#b5462d"/><circle cx="859.4" cy="294.8" r="2.6" fill="#b5462d"/><circle cx="871.2" cy="294.7" r="2.6" fill="#b5462d"/><circle cx="882.9" cy="294.7" r="2.6" fill="#b5462d"/><circle cx="894.7" cy="295.0" r="2.6" fill="#b5462d"/><circle cx="906.5" cy="294.9" r="2.6" fill="#b5462d"/><circle cx="918.2" cy="294.6" r="2.6" fill="#b5462d"/><text x="60.0" y="426.0" font-size="11" fill="#55524a" text-anchor="start">one dot per chromatic note held 0.8 s or more; blue breath 0.15, green 0.5, red 0.9; dashed lines at +-6 cents</text></svg>